<svg id="flowA1" width="100%" xmlns="http://www.w3.org/2000/svg" xmlns:xlink="http://www.w3.org/1999/xlink" class="flowchart" style="max-width: 993.352px; background-color: transparent;" viewBox="0 0 993.3515625 2697.96875" role="graphics-document document" aria-roledescription="flowchart-v2"><style>#flowA1{font-family:'Noto Sans KR','Noto Sans CJK KR',sans-serif;font-size:14px;fill:#000000;}@keyframes edge-animation-frame{from{stroke-dashoffset:0;}}@keyframes dash{to{stroke-dashoffset:0;}}#flowA1 .edge-animation-slow{stroke-dasharray:9,5!important;stroke-dashoffset:900;animation:dash 50s linear infinite;stroke-linecap:round;}#flowA1 .edge-animation-fast{stroke-dasharray:9,5!important;stroke-dashoffset:900;animation:dash 20s linear infinite;stroke-linecap:round;}#flowA1 .error-icon{fill:#552222;}#flowA1 .error-text{fill:#552222;stroke:#552222;}#flowA1 .edge-thickness-normal{stroke-width:1px;}#flowA1 .edge-thickness-thick{stroke-width:3.5px;}#flowA1 .edge-pattern-solid{stroke-dasharray:0;}#flowA1 .edge-thickness-invisible{stroke-width:0;fill:none;}#flowA1 .edge-pattern-dashed{stroke-dasharray:3;}#flowA1 .edge-pattern-dotted{stroke-dasharray:2;}#flowA1 .marker{fill:#666;stroke:#666;}#flowA1 .marker.cross{stroke:#666;}#flowA1 svg{font-family:'Noto Sans KR','Noto Sans CJK KR',sans-serif;font-size:14px;}#flowA1 p{margin:0;}#flowA1 .label{font-family:'Noto Sans KR','Noto Sans CJK KR',sans-serif;color:#000000;}#flowA1 .cluster-label text{fill:#333;}#flowA1 .cluster-label span{color:#333;}#flowA1 .cluster-label span p{background-color:transparent;}#flowA1 .label text,#flowA1 span{fill:#000000;color:#000000;}#flowA1 .node rect,#flowA1 .node circle,#flowA1 .node ellipse,#flowA1 .node polygon,#flowA1 .node path{fill:#eee;stroke:#999;stroke-width:1px;}#flowA1 .rough-node .label text,#flowA1 .node .label text,#flowA1 .image-shape .label,#flowA1 .icon-shape .label{text-anchor:middle;}#flowA1 .node .katex path{fill:#000;stroke:#000;stroke-width:1px;}#flowA1 .rough-node .label,#flowA1 .node .label,#flowA1 .image-shape .label,#flowA1 .icon-shape .label{text-align:center;}#flowA1 .node.clickable{cursor:pointer;}#flowA1 .root .anchor path{fill:#666!important;stroke-width:0;stroke:#666;}#flowA1 .arrowheadPath{fill:#333333;}#flowA1 .edgePaths .path{stroke:#666;stroke-width:1px;}#flowA1 .flowchart-link{stroke:#666;fill:none;}#flowA1 .edgeLabel{background-color:white;text-align:center;}#flowA1 .edgeLabel p{background-color:white;}#flowA1 .edgeLabel rect{opacity:0.5;background-color:white;fill:white;}#flowA1 .labelBkg{background-color:rgba(255, 255, 255, 0.5);}#flowA1 .cluster rect{fill:hsl(0, 0%, 98.9215686275%);stroke:#707070;stroke-width:1px;}#flowA1 .cluster text{fill:#333;}#flowA1 .cluster span{color:#333;}#flowA1 .node .collapsed-indicator{fill:#707070;stroke:none;opacity:0.6;}#flowA1 .node .collapsed-separator{stroke:#707070;stroke-width:0.75px;}#flowA1 div.mermaidTooltip{position:absolute;text-align:center;max-width:200px;padding:2px;font-family:'Noto Sans KR','Noto Sans CJK KR',sans-serif;font-size:12px;background:hsl(-160, 0%, 93.3333333333%);border:1px solid #707070;border-radius:2px;pointer-events:none;z-index:100;}#flowA1 .flowchartTitleText{text-anchor:middle;font-size:18px;fill:#000000;}#flowA1 rect.text{fill:none;stroke-width:0;}#flowA1 .icon-shape,#flowA1 .image-shape{background-color:white;text-align:center;}#flowA1 .icon-shape p,#flowA1 .image-shape p{background-color:white;padding:2px;}#flowA1 .icon-shape .label rect,#flowA1 .image-shape .label rect{opacity:0.5;background-color:white;fill:white;}#flowA1 .label-icon{display:inline-block;height:1em;overflow:visible;vertical-align:-0.125em;}#flowA1 .node .label-icon path{fill:currentColor;stroke:revert;stroke-width:revert;}#flowA1 .node .neo-node{stroke:#999;}#flowA1 [data-look="neo"].node rect,#flowA1 [data-look="neo"].cluster rect,#flowA1 [data-look="neo"].node polygon{stroke:url(#flowA1-gradient);filter:drop-shadow( 1px 2px 2px rgba(185,185,185,1));}#flowA1 [data-look="neo"].swimlane.cluster rect{filter:none;}#flowA1 [data-look="neo"].node path{stroke:url(#flowA1-gradient);stroke-width:1px;}#flowA1 [data-look="neo"].node .outer-path{filter:drop-shadow( 1px 2px 2px rgba(185,185,185,1));}#flowA1 [data-look="neo"].node .neo-line path{stroke:#999;filter:none;}#flowA1 [data-look="neo"].node circle{stroke:url(#flowA1-gradient);filter:drop-shadow( 1px 2px 2px rgba(185,185,185,1));}#flowA1 [data-look="neo"].node circle .state-start{fill:#000000;}#flowA1 [data-look="neo"].icon-shape .icon{fill:url(#flowA1-gradient);filter:drop-shadow( 1px 2px 2px rgba(185,185,185,1));}#flowA1 [data-look="neo"].icon-shape .icon-neo path{stroke:url(#flowA1-gradient);filter:drop-shadow( 1px 2px 2px rgba(185,185,185,1));}#flowA1 :root{--mermaid-font-family:'Noto Sans KR','Noto Sans CJK KR',sans-serif;}</style><g><marker id="flowA1_flowchart-v2-pointEnd" class="marker flowchart-v2" viewBox="0 0 10 10" refX="5" refY="5" markerUnits="userSpaceOnUse" markerWidth="8" markerHeight="8" orient="auto"><path d="M 0 0 L 10 5 L 0 10 z" class="arrowMarkerPath" style="stroke-width: 1; stroke-dasharray: 1, 0;"/></marker><marker id="flowA1_flowchart-v2-pointStart" class="marker flowchart-v2" viewBox="0 0 10 10" refX="4.5" refY="5" markerUnits="userSpaceOnUse" markerWidth="8" markerHeight="8" orient="auto"><path d="M 0 5 L 10 10 L 10 0 z" class="arrowMarkerPath" style="stroke-width: 1; stroke-dasharray: 1, 0;"/></marker><marker id="flowA1_flowchart-v2-pointEnd-margin" class="marker flowchart-v2" viewBox="0 0 11.5 14" refX="11.5" refY="7" markerUnits="userSpaceOnUse" markerWidth="10.5" markerHeight="14" orient="auto"><path d="M 0 0 L 11.5 7 L 0 14 z" class="arrowMarkerPath" style="stroke-width: 0; stroke-dasharray: 1, 0;"/></marker><marker id="flowA1_flowchart-v2-pointStart-margin" class="marker flowchart-v2" viewBox="0 0 11.5 14" refX="1" refY="7" markerUnits="userSpaceOnUse" markerWidth="11.5" markerHeight="14" orient="auto"><polygon points="0,7 11.5,14 11.5,0" class="arrowMarkerPath" style="stroke-width: 0; stroke-dasharray: 1, 0;"/></marker><marker id="flowA1_flowchart-v2-circleEnd" class="marker flowchart-v2" viewBox="0 0 10 10" refX="11" refY="5" markerUnits="userSpaceOnUse" markerWidth="11" markerHeight="11" orient="auto"><circle cx="5" cy="5" r="5" class="arrowMarkerPath" style="stroke-width: 1; stroke-dasharray: 1, 0;"/></marker><marker id="flowA1_flowchart-v2-circleStart" class="marker flowchart-v2" viewBox="0 0 10 10" refX="-1" refY="5" markerUnits="userSpaceOnUse" markerWidth="11" markerHeight="11" orient="auto"><circle cx="5" cy="5" r="5" class="arrowMarkerPath" style="stroke-width: 1; stroke-dasharray: 1, 0;"/></marker><marker id="flowA1_flowchart-v2-circleEnd-margin" class="marker flowchart-v2" viewBox="0 0 10 10" refY="5" refX="12.25" markerUnits="userSpaceOnUse" markerWidth="14" markerHeight="14" orient="auto"><circle cx="5" cy="5" r="5" class="arrowMarkerPath" style="stroke-width: 0; stroke-dasharray: 1, 0;"/></marker><marker id="flowA1_flowchart-v2-circleStart-margin" class="marker flowchart-v2" viewBox="0 0 10 10" refX="-2" refY="5" markerUnits="userSpaceOnUse" markerWidth="14" markerHeight="14" orient="auto"><circle cx="5" cy="5" r="5" class="arrowMarkerPath" style="stroke-width: 0; stroke-dasharray: 1, 0;"/></marker><marker id="flowA1_flowchart-v2-crossEnd" class="marker cross flowchart-v2" viewBox="0 0 11 11" refX="12" refY="5.2" markerUnits="userSpaceOnUse" markerWidth="11" markerHeight="11" orient="auto"><path d="M 1,1 l 9,9 M 10,1 l -9,9" class="arrowMarkerPath" style="stroke-width: 2; stroke-dasharray: 1, 0;"/></marker><marker id="flowA1_flowchart-v2-crossStart" class="marker cross flowchart-v2" viewBox="0 0 11 11" refX="-1" refY="5.2" markerUnits="userSpaceOnUse" markerWidth="11" markerHeight="11" orient="auto"><path d="M 1,1 l 9,9 M 10,1 l -9,9" class="arrowMarkerPath" style="stroke-width: 2; stroke-dasharray: 1, 0;"/></marker><marker id="flowA1_flowchart-v2-crossEnd-margin" class="marker cross flowchart-v2" viewBox="0 0 15 15" refX="17.7" refY="7.5" markerUnits="userSpaceOnUse" markerWidth="12" markerHeight="12" orient="auto"><path d="M 1,1 L 14,14 M 1,14 L 14,1" class="arrowMarkerPath" style="stroke-width: 2.5;"/></marker><marker id="flowA1_flowchart-v2-crossStart-margin" class="marker cross flowchart-v2" viewBox="0 0 15 15" refX="-3.5" refY="7.5" markerUnits="userSpaceOnUse" markerWidth="12" markerHeight="12" orient="auto"><path d="M 1,1 L 14,14 M 1,14 L 14,1" class="arrowMarkerPath" style="stroke-width: 2.5; stroke-dasharray: 1, 0;"/></marker><g class="root"><g class="clusters"/><g class="edgePaths"><path d="M263.289,43.5L263.206,47.083C263.122,50.667,262.956,57.833,262.872,64.417C262.789,71,262.789,77,262.789,80L262.789,83" id="flowA1-L_A_B_0" class="edge-thickness-normal edge-pattern-solid edge-thickness-normal edge-pattern-solid flowchart-link" style=";" data-edge="true" data-et="edge" data-id="L_A_B_0" data-points="W3sieCI6MjYzLjI4OTA2MjUsInkiOjQzLjV9LHsieCI6MjYyLjc4OTA2MjUsInkiOjY1fSx7IngiOjI2Mi43ODkwNjI1LCJ5Ijo4N31d" data-look="classic" marker-end="url(#flowA1_flowchart-v2-pointEnd)"/><path d="M201.418,157L191.92,162.417C182.422,167.833,163.426,178.667,153.928,188.833C144.43,199,144.43,208.5,144.43,213.25L144.43,218" id="flowA1-L_B_C_0" class="edge-thickness-normal edge-pattern-solid edge-thickness-normal edge-pattern-solid flowchart-link" style=";" data-edge="true" data-et="edge" data-id="L_B_C_0" data-points="W3sieCI6MjAxLjQxNzUzNDcyMjIyMjIzLCJ5IjoxNTd9LHsieCI6MTQ0LjQyOTY4NzUsInkiOjE4OS41fSx7IngiOjE0NC40Mjk2ODc1LCJ5IjoyMjJ9XQ==" data-look="classic" marker-end="url(#flowA1_flowchart-v2-pointEnd)"/><path d="M121.105,344.112L116.711,353.417C112.317,362.721,103.53,381.329,102.126,407.569C100.722,433.809,106.701,467.681,109.691,484.617L112.681,501.553" id="flowA1-L_C_C1_0" class="edge-thickness-normal edge-pattern-solid edge-thickness-normal edge-pattern-solid flowchart-link" style=";" data-edge="true" data-et="edge" data-id="L_C_C1_0" data-points="W3sieCI6MTIxLjEwNDUyODYzMzc1MDI1LCJ5IjozNDQuMTEyMzQxMTMzNzUwMjV9LHsieCI6OTQuNzQyMTg3NSwieSI6Mzk5LjkzNzV9LHsieCI6MTEzLjM3NjA0MjYyMjAwNTQ0LCJ5Ijo1MDUuNDkyMTg3NX1d" data-look="classic" marker-end="url(#flowA1_flowchart-v2-pointEnd)"/><path d="M125.749,505.492L128.862,487.9C131.976,470.307,138.203,435.122,141.316,412.78C144.43,390.438,144.43,380.938,144.43,376.188L144.43,371.438" id="flowA1-L_C1_C_0" class="edge-thickness-normal edge-pattern-solid edge-thickness-normal edge-pattern-solid flowchart-link" style=";" data-edge="true" data-et="edge" data-id="L_C1_C_0" data-points="W3sieCI6MTI1Ljc0ODg5NTcxNTIxODcyLCJ5Ijo1MDUuNDkyMTg3NX0seyJ4IjoxNDQuNDI5Njg3NSwieSI6Mzk5LjkzNzV9LHsieCI6MTQ0LjQyOTY4NzUsInkiOjM2Ny40Mzc1fV0=" data-look="classic" marker-end="url(#flowA1_flowchart-v2-pointEnd)"/><path d="M194.373,317.494L224.505,331.234C254.637,344.975,314.9,372.456,345.032,390.947C375.164,409.438,375.164,418.938,375.164,423.688L375.164,428.438" id="flowA1-L_C_D_0" class="edge-thickness-normal edge-pattern-solid edge-thickness-normal edge-pattern-solid flowchart-link" style=";" data-edge="true" data-et="edge" data-id="L_C_D_0" data-points="W3sieCI6MTk0LjM3MzMwNzg1NDg2NzIyLCJ5IjozMTcuNDkzODc5NjQ1MTMyOH0seyJ4IjozNzUuMTY0MDYyNSwieSI6Mzk5LjkzNzV9LHsieCI6Mzc1LjE2NDA2MjUsInkiOjQzMi40Mzc1fV0=" data-look="classic" marker-end="url(#flowA1_flowchart-v2-pointEnd)"/><path d="M325.767,599.15L314.273,612.8C302.778,626.449,279.79,653.748,268.295,675.647C256.801,697.547,256.801,714.047,256.801,722.297L256.801,730.547" id="flowA1-L_D_R_0" class="edge-thickness-normal edge-pattern-solid edge-thickness-normal edge-pattern-solid flowchart-link" style=";" data-edge="true" data-et="edge" data-id="L_D_R_0" data-points="W3sieCI6MzI1Ljc2NzMwNzg4ODE0NjI2LCJ5Ijo1OTkuMTUwMTIwMzg4MTQ2M30seyJ4IjoyNTYuODAwNzgxMjUsInkiOjY4MS4wNDY4NzV9LHsieCI6MjU2LjgwMDc4MTI1LCJ5Ijo3MzQuNTQ2ODc1fV0=" data-look="classic" marker-end="url(#flowA1_flowchart-v2-pointEnd)"/><path d="M424.575,599.136L436.077,612.788C447.58,626.44,470.585,653.743,482.087,672.145C493.59,690.547,493.59,700.047,493.59,704.797L493.59,709.547" id="flowA1-L_D_E_0" class="edge-thickness-normal edge-pattern-solid edge-thickness-normal edge-pattern-solid flowchart-link" style=";" data-edge="true" data-et="edge" data-id="L_D_E_0" data-points="W3sieCI6NDI0LjU3NDk3MzA4NTk0NCwieSI6NTk5LjEzNTk2NDQxNDA1Nn0seyJ4Ijo0OTMuNTg5ODQzNzUsInkiOjY4MS4wNDY4NzV9LHsieCI6NDkzLjU4OTg0Mzc1LCJ5Ijo3MTMuNTQ2ODc1fV0=" data-look="classic" marker-end="url(#flowA1_flowchart-v2-pointEnd)"/><path d="M493.59,804.547L493.59,808.214C493.59,811.88,493.59,819.214,493.59,825.88C493.59,832.547,493.59,838.547,493.59,841.547L493.59,844.547" id="flowA1-L_E_P_0" class="edge-thickness-normal edge-pattern-solid edge-thickness-normal edge-pattern-solid flowchart-link" style=";" data-edge="true" data-et="edge" data-id="L_E_P_0" data-points="W3sieCI6NDkzLjU4OTg0Mzc1LCJ5Ijo4MDQuNTQ2ODc1fSx7IngiOjQ5My41ODk4NDM3NSwieSI6ODI2LjU0Njg3NX0seyJ4Ijo0OTMuNTg5ODQzNzUsInkiOjg0OC41NDY4NzV9XQ==" data-look="classic" marker-end="url(#flowA1_flowchart-v2-pointEnd)"/><path d="M451.728,1069.56L445.936,1081.954C440.144,1094.347,428.56,1119.135,422.768,1144.528C416.977,1169.922,416.977,1195.922,416.977,1220.172C416.977,1244.422,416.977,1266.922,420.638,1281.398C424.3,1295.874,431.623,1302.326,435.284,1305.552L438.946,1308.778" id="flowA1-L_P_E1_0" class="edge-thickness-normal edge-pattern-solid edge-thickness-normal edge-pattern-solid flowchart-link" style=";" data-edge="true" data-et="edge" data-id="L_P_E1_0" data-points="W3sieCI6NDUxLjcyODE3MDcwOTYxNDIsInkiOjEwNjkuNTYwMjAxOTU5NjE0Mn0seyJ4Ijo0MTYuOTc2NTYyNSwieSI6MTE0My45MjE4NzV9LHsieCI6NDE2Ljk3NjU2MjUsInkiOjEyMjEuOTIxODc1fSx7IngiOjQxNi45NzY1NjI1LCJ5IjoxMjg5LjQyMTg3NX0seyJ4Ijo0NDEuOTQ2ODE3MTI5NjI5NiwieSI6MTMxMS40MjE4NzV9XQ==" data-look="classic" marker-end="url(#flowA1_flowchart-v2-pointEnd)"/><path d="M535.452,1069.56L541.243,1081.954C547.035,1094.347,558.619,1119.135,564.411,1136.278C570.203,1153.422,570.203,1162.922,570.203,1167.672L570.203,1172.422" id="flowA1-L_P_P1_0" class="edge-thickness-normal edge-pattern-solid edge-thickness-normal edge-pattern-solid flowchart-link" style=";" data-edge="true" data-et="edge" data-id="L_P_P1_0" data-points="W3sieCI6NTM1LjQ1MTUxNjc5MDM4NTksInkiOjEwNjkuNTYwMjAxOTU5NjE0Mn0seyJ4Ijo1NzAuMjAzMTI1LCJ5IjoxMTQzLjkyMTg3NX0seyJ4Ijo1NzAuMjAzMTI1LCJ5IjoxMTc2LjQyMTg3NX1d" data-look="classic" marker-end="url(#flowA1_flowchart-v2-pointEnd)"/><path d="M570.203,1267.422L570.203,1271.089C570.203,1274.755,570.203,1282.089,566.542,1288.981C562.88,1295.874,555.557,1302.326,551.896,1305.552L548.234,1308.778" id="flowA1-L_P1_E1_0" class="edge-thickness-normal edge-pattern-solid edge-thickness-normal edge-pattern-solid flowchart-link" style=";" data-edge="true" data-et="edge" data-id="L_P1_E1_0" data-points="W3sieCI6NTcwLjIwMzEyNSwieSI6MTI2Ny40MjE4NzV9LHsieCI6NTcwLjIwMzEyNSwieSI6MTI4OS40MjE4NzV9LHsieCI6NTQ1LjIzMjg3MDM3MDM3MDQsInkiOjEzMTEuNDIxODc1fV0=" data-look="classic" marker-end="url(#flowA1_flowchart-v2-pointEnd)"/><path d="M493.59,1402.422L493.59,1406.089C493.59,1409.755,493.59,1417.089,493.59,1423.755C493.59,1430.422,493.59,1436.422,493.59,1439.422L493.59,1442.422" id="flowA1-L_E1_F_0" class="edge-thickness-normal edge-pattern-solid edge-thickness-normal edge-pattern-solid flowchart-link" style=";" data-edge="true" data-et="edge" data-id="L_E1_F_0" data-points="W3sieCI6NDkzLjU4OTg0Mzc1LCJ5IjoxNDAyLjQyMTg3NX0seyJ4Ijo0OTMuNTg5ODQzNzUsInkiOjE0MjQuNDIxODc1fSx7IngiOjQ5My41ODk4NDM3NSwieSI6MTQ0Ni40MjE4NzV9XQ==" data-look="classic" marker-end="url(#flowA1_flowchart-v2-pointEnd)"/><path d="M463.328,1519.816L448.65,1530.277C433.973,1540.737,404.617,1561.658,391.317,1576.894C378.017,1592.13,380.772,1601.683,382.15,1606.459L383.528,1611.235" id="flowA1-L_F_F1_0" class="edge-thickness-normal edge-pattern-solid edge-thickness-normal edge-pattern-solid flowchart-link" style=";" data-edge="true" data-et="edge" data-id="L_F_F1_0" data-points="W3sieCI6NDYzLjMyODEzMjgzMDU3MDU1LCJ5IjoxNTE5LjgxNjQxNDA4MDU3MDR9LHsieCI6Mzc1LjI2MTcxODc1LCJ5IjoxNTgyLjU3ODEyNX0seyJ4IjozODQuNjM2MjA0NzY5NzM2OCwieSI6MTYxNS4wNzgxMjV9XQ==" data-look="classic" marker-end="url(#flowA1_flowchart-v2-pointEnd)"/><path d="M435.497,1615.078L445.179,1609.661C454.861,1604.245,474.225,1593.411,483.908,1583.245C493.59,1573.078,493.59,1563.578,493.59,1558.828L493.59,1554.078" id="flowA1-L_F1_F_0" class="edge-thickness-normal edge-pattern-solid edge-thickness-normal edge-pattern-solid flowchart-link" style=";" data-edge="true" data-et="edge" data-id="L_F1_F_0" data-points="W3sieCI6NDM1LjQ5NjUzOTE5OTU2MTQsInkiOjE2MTUuMDc4MTI1fSx7IngiOjQ5My41ODk4NDM3NSwieSI6MTU4Mi41NzgxMjV9LHsieCI6NDkzLjU4OTg0Mzc1LCJ5IjoxNTUwLjA3ODEyNX1d" data-look="classic" marker-end="url(#flowA1_flowchart-v2-pointEnd)"/><path d="M525.47,1518.198L542.618,1528.928C559.766,1539.658,594.063,1561.118,611.211,1576.598C628.359,1592.078,628.359,1601.578,628.359,1606.328L628.359,1611.078" id="flowA1-L_F_G_0" class="edge-thickness-normal edge-pattern-solid edge-thickness-normal edge-pattern-solid flowchart-link" style=";" data-edge="true" data-et="edge" data-id="L_F_G_0" data-points="W3sieCI6NTI1LjQ2OTkyOTY5NTk5NjYsInkiOjE1MTguMTk4MDM5MDU0MDAzNH0seyJ4Ijo2MjguMzU5Mzc1LCJ5IjoxNTgyLjU3ODEyNX0seyJ4Ijo2MjguMzU5Mzc1LCJ5IjoxNjE1LjA3ODEyNX1d" data-look="classic" marker-end="url(#flowA1_flowchart-v2-pointEnd)"/><path d="M628.359,1664.078L628.359,1667.745C628.359,1671.411,628.359,1678.745,628.359,1685.411C628.359,1692.078,628.359,1698.078,628.359,1701.078L628.359,1704.078" id="flowA1-L_G_J_0" class="edge-thickness-normal edge-pattern-solid edge-thickness-normal edge-pattern-solid flowchart-link" style=";" data-edge="true" data-et="edge" data-id="L_G_J_0" data-points="W3sieCI6NjI4LjM1OTM3NSwieSI6MTY2NC4wNzgxMjV9LHsieCI6NjI4LjM1OTM3NSwieSI6MTY4Ni4wNzgxMjV9LHsieCI6NjI4LjM1OTM3NSwieSI6MTcwOC4wNzgxMjV9XQ==" data-look="classic" marker-end="url(#flowA1_flowchart-v2-pointEnd)"/><path d="M628.359,1778.078L628.359,1781.745C628.359,1785.411,628.359,1792.745,628.359,1799.411C628.359,1806.078,628.359,1812.078,628.359,1815.078L628.359,1818.078" id="flowA1-L_J_K_0" class="edge-thickness-normal edge-pattern-solid edge-thickness-normal edge-pattern-solid flowchart-link" style=";" data-edge="true" data-et="edge" data-id="L_J_K_0" data-points="W3sieCI6NjI4LjM1OTM3NSwieSI6MTc3OC4wNzgxMjV9LHsieCI6NjI4LjM1OTM3NSwieSI6MTgwMC4wNzgxMjV9LHsieCI6NjI4LjM1OTM3NSwieSI6MTgyMi4wNzgxMjV9XQ==" data-look="classic" marker-end="url(#flowA1_flowchart-v2-pointEnd)"/><path d="M628.359,1892.078L628.359,1895.745C628.359,1899.411,628.359,1906.745,628.359,1913.411C628.359,1920.078,628.359,1926.078,628.359,1929.078L628.359,1932.078" id="flowA1-L_K_L_0" class="edge-thickness-normal edge-pattern-solid edge-thickness-normal edge-pattern-solid flowchart-link" style=";" data-edge="true" data-et="edge" data-id="L_K_L_0" data-points="W3sieCI6NjI4LjM1OTM3NSwieSI6MTg5Mi4wNzgxMjV9LHsieCI6NjI4LjM1OTM3NSwieSI6MTkxNC4wNzgxMjV9LHsieCI6NjI4LjM1OTM3NSwieSI6MTkzNi4wNzgxMjV9XQ==" data-look="classic" marker-end="url(#flowA1_flowchart-v2-pointEnd)"/><path d="M580.94,2110.893L571.024,2124.213C561.109,2137.533,541.277,2164.173,531.361,2185.047C521.445,2205.922,521.445,2221.031,521.445,2228.586L521.445,2236.141" id="flowA1-L_L_M_0" class="edge-thickness-normal edge-pattern-solid edge-thickness-normal edge-pattern-solid flowchart-link" style=";" data-edge="true" data-et="edge" data-id="L_L_M_0" data-points="W3sieCI6NTgwLjk0MDE4MTA3MDMwMzgsInkiOjIxMTAuODkzMzA2MDcwMzA0fSx7IngiOjUyMS40NDUzMTI1LCJ5IjoyMTkwLjgxMjV9LHsieCI6NTIxLjQ0NTMxMjUsInkiOjIyNDAuMTQwNjI1fV0=" data-look="classic" marker-end="url(#flowA1_flowchart-v2-pointEnd)"/><path d="M675.779,2110.893L685.694,2124.213C695.61,2137.533,715.442,2164.173,725.358,2182.243C735.273,2200.313,735.273,2209.813,735.273,2214.563L735.273,2219.313" id="flowA1-L_L_H_0" class="edge-thickness-normal edge-pattern-solid edge-thickness-normal edge-pattern-solid flowchart-link" style=";" data-edge="true" data-et="edge" data-id="L_L_H_0" data-points="W3sieCI6Njc1Ljc3ODU2ODkyOTY5NjIsInkiOjIxMTAuODkzMzA2MDcwMzA0fSx7IngiOjczNS4yNzM0Mzc1LCJ5IjoyMTkwLjgxMjV9LHsieCI6NzM1LjI3MzQzNzUsInkiOjIyMjMuMzEyNX1d" data-look="classic" marker-end="url(#flowA1_flowchart-v2-pointEnd)"/><path d="M703.405,2295.1L686.276,2305.828C669.148,2316.557,634.89,2338.013,617.762,2353.491C600.633,2368.969,600.633,2378.469,600.633,2383.219L600.633,2387.969" id="flowA1-L_H_I_0" class="edge-thickness-normal edge-pattern-solid edge-thickness-normal edge-pattern-solid flowchart-link" style=";" data-edge="true" data-et="edge" data-id="L_H_I_0" data-points="W3sieCI6NzAzLjQwNTA5NDkwNTA5NDksInkiOjIyOTUuMTAwNDA3NDA1MDk0OH0seyJ4Ijo2MDAuNjMyODEyNSwieSI6MjM1OS40Njg3NX0seyJ4Ijo2MDAuNjMyODEyNSwieSI6MjM5MS45Njg3NX1d" data-look="classic" marker-end="url(#flowA1_flowchart-v2-pointEnd)"/><path d="M600.633,2461.969L600.633,2465.635C600.633,2469.302,600.633,2476.635,600.633,2485.052C600.633,2493.469,600.633,2502.969,600.633,2507.719L600.633,2512.469" id="flowA1-L_I_I1_0" class="edge-thickness-normal edge-pattern-solid edge-thickness-normal edge-pattern-solid flowchart-link" style=";" data-edge="true" data-et="edge" data-id="L_I_I1_0" data-points="W3sieCI6NjAwLjYzMjgxMjUsInkiOjI0NjEuOTY4NzV9LHsieCI6NjAwLjYzMjgxMjUsInkiOjI0ODMuOTY4NzV9LHsieCI6NjAwLjYzMjgxMjUsInkiOjI1MTYuNDY4NzV9XQ==" data-look="classic" marker-end="url(#flowA1_flowchart-v2-pointEnd)"/><path d="M600.633,2565.469L600.633,2570.885C600.633,2576.302,600.633,2587.135,610.278,2596.635C619.923,2606.135,639.214,2614.302,648.859,2618.385L658.504,2622.468" id="flowA1-L_I1_N_0" class="edge-thickness-normal edge-pattern-solid edge-thickness-normal edge-pattern-solid flowchart-link" style=";" data-edge="true" data-et="edge" data-id="L_I1_N_0" data-points="W3sieCI6NjAwLjYzMjgxMjUsInkiOjI1NjUuNDY4NzV9LHsieCI6NjAwLjYzMjgxMjUsInkiOjI1OTcuOTY4NzV9LHsieCI6NjYyLjE4NzUsInkiOjI2MjQuMDI3ODc3MzA2NDg3fV0=" data-look="classic" marker-end="url(#flowA1_flowchart-v2-pointEnd)"/><path d="M767.142,2295.1L784.27,2305.828C801.399,2316.557,835.657,2338.013,852.785,2359.991C869.914,2381.969,869.914,2404.469,869.914,2425.219C869.914,2445.969,869.914,2464.969,869.914,2477.469C869.914,2489.969,869.914,2495.969,869.914,2498.969L869.914,2501.969" id="flowA1-L_H_H1_0" class="edge-thickness-normal edge-pattern-solid edge-thickness-normal edge-pattern-solid flowchart-link" style=";" data-edge="true" data-et="edge" data-id="L_H_H1_0" data-points="W3sieCI6NzY3LjE0MTc4MDA5NDkwNTEsInkiOjIyOTUuMTAwNDA3NDA1MDk0OH0seyJ4Ijo4NjkuOTE0MDYyNSwieSI6MjM1OS40Njg3NX0seyJ4Ijo4NjkuOTE0MDYyNSwieSI6MjQyNi45Njg3NX0seyJ4Ijo4NjkuOTE0MDYyNSwieSI6MjQ4My45Njg3NX0seyJ4Ijo4NjkuOTE0MDYyNSwieSI6MjUwNS45Njg3NX1d" data-look="classic" marker-end="url(#flowA1_flowchart-v2-pointEnd)"/><path d="M869.914,2575.969L869.914,2579.635C869.914,2583.302,869.914,2590.635,860.269,2598.385C850.624,2606.135,831.333,2614.302,821.688,2618.385L812.043,2622.468" id="flowA1-L_H1_N_0" class="edge-thickness-normal edge-pattern-solid edge-thickness-normal edge-pattern-solid flowchart-link" style=";" data-edge="true" data-et="edge" data-id="L_H1_N_0" data-points="W3sieCI6ODY5LjkxNDA2MjUsInkiOjI1NzUuOTY4NzV9LHsieCI6ODY5LjkxNDA2MjUsInkiOjI1OTcuOTY4NzV9LHsieCI6ODA4LjM1OTM3NSwieSI6MjYyNC4wMjc4NzczMDY0ODd9XQ==" data-look="classic" marker-end="url(#flowA1_flowchart-v2-pointEnd)"/><path d="M324.161,157L333.659,162.417C343.157,167.833,362.152,178.667,371.65,195.12C381.148,211.573,381.148,233.646,381.148,244.682L381.148,255.719" id="flowA1-L_B_Z_0" class="edge-thickness-normal edge-pattern-dotted edge-thickness-normal edge-pattern-solid flowchart-link" style=";" data-edge="true" data-et="edge" data-id="L_B_Z_0" data-points="W3sieCI6MzI0LjE2MDU5MDI3Nzc3Nzc3LCJ5IjoxNTd9LHsieCI6MzgxLjE0ODQzNzUsInkiOjE4OS41fSx7IngiOjM4MS4xNDg0Mzc1LCJ5IjoyNTkuNzE4NzV9XQ==" data-look="classic" marker-end="url(#flowA1_flowchart-v2-pointEnd)"/></g><g class="edgeLabels"><g class="edgeLabel"><g class="label" data-id="L_A_B_0" transform="translate(0, 0)"><foreignObject width="0" height="0"><div xmlns="http://www.w3.org/1999/xhtml" class="labelBkg" style="display: table-cell; white-space: nowrap; line-height: 1.5; max-width: 200px; text-align: center;"><span class="edgeLabel"></span></div></foreignObject></g></g><g class="edgeLabel"><g class="label" data-id="L_B_C_0" transform="translate(0, 0)"><foreignObject width="0" height="0"><div xmlns="http://www.w3.org/1999/xhtml" class="labelBkg" style="display: table-cell; white-space: nowrap; line-height: 1.5; max-width: 200px; text-align: center;"><span class="edgeLabel"></span></div></foreignObject></g></g><g class="edgeLabel" transform="translate(98.69282, 422.31652)"><g class="label" data-id="L_C_C1_0" transform="translate(-29.6875, -10.5)"><foreignObject width="59.375" height="21"><div xmlns="http://www.w3.org/1999/xhtml" class="labelBkg" style="display: table-cell; white-space: nowrap; line-height: 1.5; max-width: 200px; text-align: center;"><span class="edgeLabel"><p>거절·실패</p></span></div></foreignObject></g></g><g class="edgeLabel"><g class="label" data-id="L_C1_C_0" transform="translate(0, 0)"><foreignObject width="0" height="0"><div xmlns="http://www.w3.org/1999/xhtml" class="labelBkg" style="display: table-cell; white-space: nowrap; line-height: 1.5; max-width: 200px; text-align: center;"><span class="edgeLabel"></span></div></foreignObject></g></g><g class="edgeLabel" transform="translate(375.1640625, 399.9375)"><g class="label" data-id="L_C_D_0" transform="translate(-12.8828125, -10.5)"><foreignObject width="25.765625" height="21"><div xmlns="http://www.w3.org/1999/xhtml" class="labelBkg" style="display: table-cell; white-space: nowrap; line-height: 1.5; max-width: 200px; text-align: center;"><span class="edgeLabel"><p>승인</p></span></div></foreignObject></g></g><g class="edgeLabel" transform="translate(256.80078125, 681.046875)"><g class="label" data-id="L_D_R_0" transform="translate(-12.8828125, -10.5)"><foreignObject width="25.765625" height="21"><div xmlns="http://www.w3.org/1999/xhtml" class="labelBkg" style="display: table-cell; white-space: nowrap; line-height: 1.5; max-width: 200px; text-align: center;"><span class="edgeLabel"><p>있음</p></span></div></foreignObject></g></g><g class="edgeLabel" transform="translate(493.58984375, 681.046875)"><g class="label" data-id="L_D_E_0" transform="translate(-12.8828125, -10.5)"><foreignObject width="25.765625" height="21"><div xmlns="http://www.w3.org/1999/xhtml" class="labelBkg" style="display: table-cell; white-space: nowrap; line-height: 1.5; max-width: 200px; text-align: center;"><span class="edgeLabel"><p>없음</p></span></div></foreignObject></g></g><g class="edgeLabel"><g class="label" data-id="L_E_P_0" transform="translate(0, 0)"><foreignObject width="0" height="0"><div xmlns="http://www.w3.org/1999/xhtml" class="labelBkg" style="display: table-cell; white-space: nowrap; line-height: 1.5; max-width: 200px; text-align: center;"><span class="edgeLabel"></span></div></foreignObject></g></g><g class="edgeLabel" transform="translate(416.9765625, 1221.921875)"><g class="label" data-id="L_P_E1_0" transform="translate(-12.8828125, -10.5)"><foreignObject width="25.765625" height="21"><div xmlns="http://www.w3.org/1999/xhtml" class="labelBkg" style="display: table-cell; white-space: nowrap; line-height: 1.5; max-width: 200px; text-align: center;"><span class="edgeLabel"><p>허용</p></span></div></foreignObject></g></g><g class="edgeLabel" transform="translate(570.203125, 1143.921875)"><g class="label" data-id="L_P_P1_0" transform="translate(-12.8828125, -10.5)"><foreignObject width="25.765625" height="21"><div xmlns="http://www.w3.org/1999/xhtml" class="labelBkg" style="display: table-cell; white-space: nowrap; line-height: 1.5; max-width: 200px; text-align: center;"><span class="edgeLabel"><p>거절</p></span></div></foreignObject></g></g><g class="edgeLabel"><g class="label" data-id="L_P1_E1_0" transform="translate(0, 0)"><foreignObject width="0" height="0"><div xmlns="http://www.w3.org/1999/xhtml" class="labelBkg" style="display: table-cell; white-space: nowrap; line-height: 1.5; max-width: 200px; text-align: center;"><span class="edgeLabel"></span></div></foreignObject></g></g><g class="edgeLabel"><g class="label" data-id="L_E1_F_0" transform="translate(0, 0)"><foreignObject width="0" height="0"><div xmlns="http://www.w3.org/1999/xhtml" class="labelBkg" style="display: table-cell; white-space: nowrap; line-height: 1.5; max-width: 200px; text-align: center;"><span class="edgeLabel"></span></div></foreignObject></g></g><g class="edgeLabel" transform="translate(405.5221, 1561.01266)"><g class="label" data-id="L_F_F1_0" transform="translate(-12.8828125, -10.5)"><foreignObject width="25.765625" height="21"><div xmlns="http://www.w3.org/1999/xhtml" class="labelBkg" style="display: table-cell; white-space: nowrap; line-height: 1.5; max-width: 200px; text-align: center;"><span class="edgeLabel"><p>빈칸</p></span></div></foreignObject></g></g><g class="edgeLabel"><g class="label" data-id="L_F1_F_0" transform="translate(0, 0)"><foreignObject width="0" height="0"><div xmlns="http://www.w3.org/1999/xhtml" class="labelBkg" style="display: table-cell; white-space: nowrap; line-height: 1.5; max-width: 200px; text-align: center;"><span class="edgeLabel"></span></div></foreignObject></g></g><g class="edgeLabel" transform="translate(628.359375, 1582.578125)"><g class="label" data-id="L_F_G_0" transform="translate(-12.8828125, -10.5)"><foreignObject width="25.765625" height="21"><div xmlns="http://www.w3.org/1999/xhtml" class="labelBkg" style="display: table-cell; white-space: nowrap; line-height: 1.5; max-width: 200px; text-align: center;"><span class="edgeLabel"><p>입력</p></span></div></foreignObject></g></g><g class="edgeLabel"><g class="label" data-id="L_G_J_0" transform="translate(0, 0)"><foreignObject width="0" height="0"><div xmlns="http://www.w3.org/1999/xhtml" class="labelBkg" style="display: table-cell; white-space: nowrap; line-height: 1.5; max-width: 200px; text-align: center;"><span class="edgeLabel"></span></div></foreignObject></g></g><g class="edgeLabel"><g class="label" data-id="L_J_K_0" transform="translate(0, 0)"><foreignObject width="0" height="0"><div xmlns="http://www.w3.org/1999/xhtml" class="labelBkg" style="display: table-cell; white-space: nowrap; line-height: 1.5; max-width: 200px; text-align: center;"><span class="edgeLabel"></span></div></foreignObject></g></g><g class="edgeLabel"><g class="label" data-id="L_K_L_0" transform="translate(0, 0)"><foreignObject width="0" height="0"><div xmlns="http://www.w3.org/1999/xhtml" class="labelBkg" style="display: table-cell; white-space: nowrap; line-height: 1.5; max-width: 200px; text-align: center;"><span class="edgeLabel"></span></div></foreignObject></g></g><g class="edgeLabel" transform="translate(521.4453125, 2190.8125)"><g class="label" data-id="L_L_M_0" transform="translate(-25.765625, -10.5)"><foreignObject width="51.53125" height="21"><div xmlns="http://www.w3.org/1999/xhtml" class="labelBkg" style="display: table-cell; white-space: nowrap; line-height: 1.5; max-width: 200px; text-align: center;"><span class="edgeLabel"><p>가져오기</p></span></div></foreignObject></g></g><g class="edgeLabel" transform="translate(735.2734375, 2190.8125)"><g class="label" data-id="L_L_H_0" transform="translate(-19.3203125, -10.5)"><foreignObject width="38.640625" height="21"><div xmlns="http://www.w3.org/1999/xhtml" class="labelBkg" style="display: table-cell; white-space: nowrap; line-height: 1.5; max-width: 200px; text-align: center;"><span class="edgeLabel"><p>건너뜀</p></span></div></foreignObject></g></g><g class="edgeLabel" transform="translate(600.6328125, 2359.46875)"><g class="label" data-id="L_H_I_0" transform="translate(-12.8828125, -10.5)"><foreignObject width="25.765625" height="21"><div xmlns="http://www.w3.org/1999/xhtml" class="labelBkg" style="display: table-cell; white-space: nowrap; line-height: 1.5; max-width: 200px; text-align: center;"><span class="edgeLabel"><p>입력</p></span></div></foreignObject></g></g><g class="edgeLabel"><g class="label" data-id="L_I_I1_0" transform="translate(0, 0)"><foreignObject width="0" height="0"><div xmlns="http://www.w3.org/1999/xhtml" class="labelBkg" style="display: table-cell; white-space: nowrap; line-height: 1.5; max-width: 200px; text-align: center;"><span class="edgeLabel"></span></div></foreignObject></g></g><g class="edgeLabel"><g class="label" data-id="L_I1_N_0" transform="translate(0, 0)"><foreignObject width="0" height="0"><div xmlns="http://www.w3.org/1999/xhtml" class="labelBkg" style="display: table-cell; white-space: nowrap; line-height: 1.5; max-width: 200px; text-align: center;"><span class="edgeLabel"></span></div></foreignObject></g></g><g class="edgeLabel" transform="translate(869.9140625, 2426.96875)"><g class="label" data-id="L_H_H1_0" transform="translate(-19.3203125, -10.5)"><foreignObject width="38.640625" height="21"><div xmlns="http://www.w3.org/1999/xhtml" class="labelBkg" style="display: table-cell; white-space: nowrap; line-height: 1.5; max-width: 200px; text-align: center;"><span class="edgeLabel"><p>건너뜀</p></span></div></foreignObject></g></g><g class="edgeLabel"><g class="label" data-id="L_H1_N_0" transform="translate(0, 0)"><foreignObject width="0" height="0"><div xmlns="http://www.w3.org/1999/xhtml" class="labelBkg" style="display: table-cell; white-space: nowrap; line-height: 1.5; max-width: 200px; text-align: center;"><span class="edgeLabel"></span></div></foreignObject></g></g><g class="edgeLabel" transform="translate(381.1484375, 189.5)"><g class="label" data-id="L_B_Z_0" transform="translate(-48.21875, -10.5)"><foreignObject width="96.4375" height="21"><div xmlns="http://www.w3.org/1999/xhtml" class="labelBkg" style="display: table-cell; white-space: nowrap; line-height: 1.5; max-width: 200px; text-align: center;"><span class="edgeLabel"><p>중간에 창을 닫음</p></span></div></foreignObject></g></g></g><g class="nodes"><g class="node default" id="flowA1-flowchart-A-0" data-look="classic" transform="translate(262.7890625, 25.5)"><g class="basic label-container outer-path"><path d="M-21.203125 -17.5 C-10.6036802079075 -17.5, -0.0042354158149997545 -17.5, 21.203125 -17.5 C21.203125 -17.5, 21.203125 -17.5, 21.203125 -17.5 C21.51764347350501 -17.489914004727765, 21.83216194701002 -17.47982800945553, 22.324353849662476 -17.464044373130886 C22.694056507434958 -17.42837960236807, 23.063759165207443 -17.39271483160526, 23.440975329478853 -17.35632524190681 C23.801063097295188 -17.29810904412861, 24.16115086511152 -17.23989284635041, 24.548401002274012 -17.177285247343644 C24.867610310982787 -17.104427805666276, 25.186819619691565 -17.031570363988905, 25.642080218416375 -16.927660103183015 C26.06120411759006 -16.803266329934505, 26.480328016763746 -16.678872556686, 26.717518815413364 -16.6084755726867 C26.9886448976717 -16.508698668153603, 27.25977097993004 -16.4089217636205, 27.770297585389045 -16.22104325355538 C28.09992464490394 -16.075127132347443, 28.429551704418834 -15.929211011139506, 28.796090434557264 -15.766955188292336 C29.016259067286718 -15.652093353622119, 29.236427700016172 -15.537231518951904, 29.790682160068908 -15.248077322159316 C30.086967577845172 -15.068467360736964, 30.38325299562144 -14.88885739931461, 30.7499857711846 -14.666541835607212 C31.115368687504013 -14.411666530354312, 31.48075160382342 -14.15679122510141, 31.67005928359628 -14.024738382689241 C31.925744040829255 -13.820836592853087, 32.18142879806223 -13.616934803016933, 32.547121917886294 -13.325304271459855 C32.814497823905455 -13.082480547992061, 33.08187372992462 -12.839656824524267, 33.37756963556101 -12.571113626710233 C33.619042531816824 -12.321773036032624, 33.86051542807264 -12.072432445355016, 34.15798994881802 -11.765265579573047 C34.42214746107072 -11.454971134692766, 34.68630497332342 -11.144676689812485, 34.88517594319052 -10.911071532527838 C35.08949905542114 -10.63729717635726, 35.29382216765176 -10.363522820186681, 35.556139455446726 -10.012041552137973 C35.751346963402696 -9.712150399362148, 35.94655447135866 -9.412259246586325, 36.168123352593554 -9.071869945434191 C36.329476913316164 -8.78537035955145, 36.49083047403878 -8.498870773668708, 36.718612861527504 -8.094420079214617 C36.90522899822992 -7.706907678406365, 37.09184513493235 -7.319395277598114, 37.20534590277671 -7.083708504641896 C37.34538836175343 -6.737800923432657, 37.48543082073015 -6.391893342223417, 37.62632238587081 -6.043888452372892 C37.729246826008215 -5.733896437461549, 37.83217126614562 -5.423904422550206, 37.97981242814156 -4.979232766043073 C38.07136989423735 -4.6300844665629874, 38.16292736033315 -4.280936167082902, 38.26436346318191 -3.894116344235504 C38.3443731268776 -3.4832836312065307, 38.4243827905733 -3.072450918177557, 38.478806209752875 -2.792998163084143 C38.521469170829356 -2.4621126617295235, 38.564132131905836 -2.131227160374904, 38.62225947661097 -1.680402953384434 C38.64258806412912 -1.363768793848764, 38.662916651647265 -1.047134634313094, 38.69413378351204 -0.5609026075039654 C38.69413378351204 -0.2856355827071555, 38.69413378351204 -0.010368557910345633, 38.69413378351204 0.5609026075039611 C38.678475365358146 0.8047951094984707, 38.662816947204256 1.0486876114929804, 38.62225947661097 1.680402953384422 C38.57840804894109 2.0205059669481695, 38.53455662127121 2.360608980511917, 38.478806209752875 2.792998163084131 C38.421506638399514 3.087219351714962, 38.364207067046145 3.3814405403457934, 38.26436346318191 3.8941163442355 C38.19657051329295 4.152640243812455, 38.128777563403986 4.411164143389409, 37.97981242814156 4.979232766043061 C37.897198865902034 5.2280516528248935, 37.81458530366251 5.476870539606727, 37.62632238587081 6.04388845237288 C37.4888579570277 6.383428249309288, 37.351393528184595 6.722968046245696, 37.20534590277672 7.0837085046418915 C37.103793625577275 7.294583981117178, 37.00224134837784 7.505459457592464, 36.718612861527504 8.094420079214613 C36.60172095243064 8.301973500405413, 36.48482904333377 8.509526921596214, 36.16812335259356 9.071869945434186 C36.01214364596536 9.311496661230985, 35.85616393933716 9.551123377027784, 35.55613945544673 10.012041552137964 C35.41987503500268 10.194623461588913, 35.283610614558626 10.377205371039864, 34.885175943190525 10.911071532527835 C34.638794454321406 11.200485248857369, 34.392412965452294 11.489898965186905, 34.15798994881803 11.765265579573038 C33.98039683126134 11.948645054116437, 33.80280371370465 12.132024528659835, 33.37756963556102 12.571113626710229 C33.04576452732507 12.872450246928032, 32.71395941908912 13.173786867145834, 32.54712191788631 13.325304271459842 C32.33264872898021 13.496340932241203, 32.11817554007412 13.667377593022564, 31.670059283596284 14.02473838268924 C31.306504734733483 14.278338297953162, 30.942950185870686 14.531938213217083, 30.749985771184612 14.666541835607207 C30.53608962855237 14.796206934264129, 30.32219348592013 14.92587203292105, 29.79068216006891 15.248077322159315 C29.46257064790382 15.419252887890387, 29.134459135738734 15.590428453621461, 28.79609043455727 15.766955188292332 C28.449737090690476 15.920275539415261, 28.10338374682368 16.073595890538186, 27.770297585389052 16.22104325355538 C27.417428728477965 16.350902254782614, 27.06455987156688 16.480761256009853, 26.717518815413374 16.608475572686697 C26.422801710965523 16.69594606228517, 26.128084606517668 16.783416551883644, 25.642080218416396 16.927660103183012 C25.219743415514703 17.02405572244012, 24.79740661261301 17.120451341697233, 24.54840100227402 17.177285247343644 C24.31379355299947 17.215214760334412, 24.079186103724922 17.253144273325177, 23.440975329478864 17.356325241906806 C23.06318522846715 17.392770198592334, 22.68539512745544 17.429215155277863, 22.324353849662476 17.464044373130886 C22.029645853940533 17.473495084939373, 21.73493785821859 17.482945796747863, 21.203125000000004 17.5 C21.203125000000004 17.5, 21.203125000000004 17.5, 21.203125 17.5 C8.550142103724244 17.5, -4.102840792551511 17.5, -21.203124999999996 17.5 C-21.526708788500844 17.489623297720414, -21.850292577001692 17.479246595440827, -22.32435384966247 17.464044373130886 C-22.703613268080442 17.427457673162287, -23.08287268649842 17.39087097319369, -23.44097532947886 17.356325241906806 C-23.696369830301084 17.3150350396278, -23.951764331123307 17.2737448373488, -24.548401002274012 17.177285247343644 C-24.907803309889044 17.095254015949752, -25.267205617504075 17.01322278455586, -25.642080218416375 16.927660103183015 C-26.022154290003378 16.814856113785506, -26.40222836159038 16.702052124387997, -26.717518815413353 16.608475572686704 C-26.962587449154356 16.518288050080397, -27.20765608289536 16.42810052747409, -27.77029758538905 16.22104325355538 C-28.081789726248232 16.08315492288308, -28.393281867107415 15.945266592210777, -28.796090434557264 15.766955188292338 C-29.183746619155293 15.564715205093181, -29.571402803753326 15.362475221894025, -29.790682160068904 15.248077322159318 C-30.0618532535139 15.083691811734733, -30.333024346958894 14.919306301310147, -30.74998577118459 14.666541835607218 C-30.97378465960656 14.510429419141786, -31.197583548028533 14.354317002676353, -31.670059283596277 14.024738382689243 C-31.972426116234505 13.783608879979598, -32.27479294887274 13.54247937726995, -32.547121917886294 13.325304271459856 C-32.87487688043933 13.027645886390289, -33.20263184299237 12.729987501320721, -33.377569635561 12.571113626710241 C-33.67976856771538 12.2590684182671, -33.981967499869754 11.947023209823957, -34.15798994881803 11.765265579573043 C-34.357242236594615 11.531212504574304, -34.5564945243712 11.297159429575563, -34.88517594319052 10.91107153252784 C-35.02415573644733 10.724851270883352, -35.163135529704135 10.538631009238864, -35.556139455446726 10.012041552137974 C-35.72713303012504 9.749349503228132, -35.89812660480335 9.486657454318289, -36.168123352593554 9.071869945434198 C-36.294259090018244 8.847903171008227, -36.42039482744294 8.623936396582257, -36.718612861527504 8.094420079214618 C-36.880893312351795 7.757441250832577, -37.04317376317608 7.4204624224505356, -37.20534590277671 7.083708504641898 C-37.36417023333902 6.691409337493469, -37.52299456390133 6.299110170345041, -37.62632238587081 6.043888452372894 C-37.70915382926162 5.794413342278009, -37.79198527265244 5.544938232183125, -37.97981242814156 4.979232766043068 C-38.089397588135235 4.561337056478402, -38.19898274812891 4.143441346913737, -38.26436346318191 3.8941163442355062 C-38.32418394137517 3.5869508317756655, -38.38400441956843 3.2797853193158244, -38.478806209752875 2.7929981630841447 C-38.51126880966122 2.5412246486604575, -38.54373140956956 2.2894511342367707, -38.622259476610964 1.680402953384444 C-38.63760787038791 1.4413393313080571, -38.65295626416486 1.2022757092316703, -38.69413378351204 0.5609026075039676 C-38.69413378351204 0.1425718884796695, -38.69413378351204 -0.2757588305446286, -38.69413378351204 -0.560902607503959 C-38.679637889618704 -0.7866878557675672, -38.66514199572537 -1.0124731040311752, -38.62225947661097 -1.6804029533844198 C-38.578577264318646 -2.0191935658952134, -38.534895052026314 -2.3579841784060065, -38.478806209752875 -2.7929981630841367 C-38.43446408374321 -3.020685608432124, -38.39012195773354 -3.2483730537801114, -38.26436346318191 -3.894116344235498 C-38.20197992770797 -4.132011802192956, -38.13959639223402 -4.369907260150414, -37.979812428141564 -4.979232766043059 C-37.88913558415175 -5.252336972747263, -37.79845874016195 -5.525441179451467, -37.62632238587081 -6.0438884523728715 C-37.5135294044743 -6.322489297126198, -37.40073642307779 -6.601090141879526, -37.20534590277672 -7.083708504641889 C-37.0217611456718 -7.464926180854779, -36.83817638856689 -7.846143857067669, -36.718612861527504 -8.094420079214611 C-36.57558288752006 -8.348384281420216, -36.432552913512616 -8.60234848362582, -36.168123352593554 -9.071869945434193 C-35.95186891111836 -9.404094839988536, -35.73561446964317 -9.73631973454288, -35.556139455446726 -10.012041552137969 C-35.39274104034581 -10.230980542471343, -35.229342625244904 -10.449919532804717, -34.885175943190525 -10.911071532527835 C-34.625423863738675 -11.21619110536401, -34.36567178428682 -11.521310678200184, -34.15798994881803 -11.765265579573038 C-33.93341140332726 -11.997161366033744, -33.7088328578365 -12.22905715249445, -33.377569635561024 -12.571113626710224 C-33.160339333256715 -12.768396439664157, -32.94310903095241 -12.96567925261809, -32.547121917886315 -13.32530427145984 C-32.346621170476844 -13.485198281969923, -32.14612042306738 -13.645092292480006, -31.670059283596288 -14.024738382689236 C-31.444901931432575 -14.181798404653959, -31.219744579268863 -14.338858426618682, -30.749985771184612 -14.666541835607205 C-30.407840861776293 -14.873952090357195, -30.065695952367978 -15.081362345107186, -29.79068216006891 -15.248077322159313 C-29.556199217618737 -15.370406923042077, -29.321716275168562 -15.49273652392484, -28.79609043455727 -15.766955188292332 C-28.45167333461722 -15.919418421665526, -28.107256234677166 -16.07188165503872, -27.770297585389056 -16.221043253555376 C-27.489241369016423 -16.324474539235688, -27.208185152643793 -16.427905824916, -26.717518815413374 -16.608475572686697 C-26.3392554864366 -16.72074214318227, -25.96099215745982 -16.83300871367785, -25.642080218416396 -16.92766010318301 C-25.38490954957054 -16.986357630151627, -25.12773888072468 -17.04505515712024, -24.548401002274023 -17.17728524734364 C-24.169287414001825 -17.238577392225704, -23.790173825729628 -17.299869537107767, -23.440975329478867 -17.356325241906806 C-23.024062031237744 -17.396544366376528, -22.607148732996617 -17.436763490846246, -22.324353849662476 -17.464044373130886 C-21.943405107319183 -17.476260657826092, -21.56245636497589 -17.488476942521295, -21.203125000000007 -17.5 C-21.203125000000007 -17.5, -21.203125000000004 -17.5, -21.203125 -17.5" stroke="none" stroke-width="0" fill="#eee" style=""/><path d="M-21.203125 -17.5 C-10.000212577977633 -17.5, 1.2026998440447336 -17.5, 21.203125 -17.5 M-21.203125 -17.5 C-9.51303121744309 -17.5, 2.1770625651138182 -17.5, 21.203125 -17.5 M21.203125 -17.5 C21.203125 -17.5, 21.203125 -17.5, 21.203125 -17.5 M21.203125 -17.5 C21.203125 -17.5, 21.203125 -17.5, 21.203125 -17.5 M21.203125 -17.5 C21.451554003887818 -17.49203336538304, 21.699983007775636 -17.484066730766077, 22.324353849662476 -17.464044373130886 M21.203125 -17.5 C21.559814703249934 -17.488561655471162, 21.91650440649987 -17.47712331094233, 22.324353849662476 -17.464044373130886 M22.324353849662476 -17.464044373130886 C22.644220966130035 -17.43318717710175, 22.9640880825976 -17.40232998107262, 23.440975329478853 -17.35632524190681 M22.324353849662476 -17.464044373130886 C22.557300688965693 -17.441572271702867, 22.79024752826891 -17.41910017027485, 23.440975329478853 -17.35632524190681 M23.440975329478853 -17.35632524190681 C23.67939531732701 -17.317779347246137, 23.91781530517517 -17.27923345258547, 24.548401002274012 -17.177285247343644 M23.440975329478853 -17.35632524190681 C23.862996744376993 -17.288096092371028, 24.285018159275136 -17.21986694283525, 24.548401002274012 -17.177285247343644 M24.548401002274012 -17.177285247343644 C24.82819427435714 -17.1134242588124, 25.10798754644027 -17.049563270281162, 25.642080218416375 -16.927660103183015 M24.548401002274012 -17.177285247343644 C24.84071984184238 -17.11056537977086, 25.13303868141075 -17.043845512198082, 25.642080218416375 -16.927660103183015 M25.642080218416375 -16.927660103183015 C25.992252561523852 -16.823730789840855, 26.342424904631326 -16.71980147649869, 26.717518815413364 -16.6084755726867 M25.642080218416375 -16.927660103183015 C25.987284271379835 -16.825205352276512, 26.33248832434329 -16.722750601370006, 26.717518815413364 -16.6084755726867 M26.717518815413364 -16.6084755726867 C26.983982397731978 -16.510414511231097, 27.250445980050593 -16.41235344977549, 27.770297585389045 -16.22104325355538 M26.717518815413364 -16.6084755726867 C27.043651027135866 -16.488455904039704, 27.369783238858364 -16.368436235392704, 27.770297585389045 -16.22104325355538 M27.770297585389045 -16.22104325355538 C27.9955489451111 -16.121331158450605, 28.220800304833155 -16.021619063345835, 28.796090434557264 -15.766955188292336 M27.770297585389045 -16.22104325355538 C28.13465201466731 -16.05975435590402, 28.49900644394558 -15.898465458252662, 28.796090434557264 -15.766955188292336 M28.796090434557264 -15.766955188292336 C29.011790426549044 -15.654424640632664, 29.22749041854082 -15.541894092972992, 29.790682160068908 -15.248077322159316 M28.796090434557264 -15.766955188292336 C29.158018489818836 -15.578137553688357, 29.51994654508041 -15.389319919084379, 29.790682160068908 -15.248077322159316 M29.790682160068908 -15.248077322159316 C30.103553564302718 -15.058412838276324, 30.41642496853653 -14.868748354393333, 30.7499857711846 -14.666541835607212 M29.790682160068908 -15.248077322159316 C30.1077483421041 -15.055869939321877, 30.424814524139286 -14.863662556484439, 30.7499857711846 -14.666541835607212 M30.7499857711846 -14.666541835607212 C30.986042005135282 -14.501879225512887, 31.222098239085966 -14.337216615418564, 31.67005928359628 -14.024738382689241 M30.7499857711846 -14.666541835607212 C31.099213775800354 -14.422935497423927, 31.448441780416108 -14.17932915924064, 31.67005928359628 -14.024738382689241 M31.67005928359628 -14.024738382689241 C31.993886579252962 -13.766494731809281, 32.31771387490964 -13.508251080929323, 32.547121917886294 -13.325304271459855 M31.67005928359628 -14.024738382689241 C31.990384707154508 -13.76928738161907, 32.310710130712735 -13.5138363805489, 32.547121917886294 -13.325304271459855 M32.547121917886294 -13.325304271459855 C32.78170429959878 -13.112262759098279, 33.01628668131126 -12.899221246736705, 33.37756963556101 -12.571113626710233 M32.547121917886294 -13.325304271459855 C32.79159743436023 -13.103278075865935, 33.03607295083415 -12.881251880272016, 33.37756963556101 -12.571113626710233 M33.37756963556101 -12.571113626710233 C33.547257035966766 -12.395897454196623, 33.71694443637252 -12.220681281683014, 34.15798994881802 -11.765265579573047 M33.37756963556101 -12.571113626710233 C33.64077978742454 -12.299327534955776, 33.90398993928808 -12.027541443201317, 34.15798994881802 -11.765265579573047 M34.15798994881802 -11.765265579573047 C34.39570184968509 -11.48603565462425, 34.63341375055215 -11.206805729675452, 34.88517594319052 -10.911071532527838 M34.15798994881802 -11.765265579573047 C34.37058714520248 -11.515536815576693, 34.58318434158693 -11.26580805158034, 34.88517594319052 -10.911071532527838 M34.88517594319052 -10.911071532527838 C35.12647783263942 -10.58774898372068, 35.367779722088315 -10.26442643491352, 35.556139455446726 -10.012041552137973 M34.88517594319052 -10.911071532527838 C35.09719428521272 -10.626986269486396, 35.30921262723493 -10.342901006444952, 35.556139455446726 -10.012041552137973 M35.556139455446726 -10.012041552137973 C35.77447988603778 -9.676612018135158, 35.99282031662884 -9.341182484132345, 36.168123352593554 -9.071869945434191 M35.556139455446726 -10.012041552137973 C35.76403791845366 -9.692653684405272, 35.97193638146059 -9.373265816672573, 36.168123352593554 -9.071869945434191 M36.168123352593554 -9.071869945434191 C36.29459004482144 -8.84731552724234, 36.42105673704933 -8.622761109050492, 36.718612861527504 -8.094420079214617 M36.168123352593554 -9.071869945434191 C36.34460344395184 -8.758511672680495, 36.521083535310126 -8.445153399926797, 36.718612861527504 -8.094420079214617 M36.718612861527504 -8.094420079214617 C36.849318308382934 -7.823007422170773, 36.980023755238356 -7.551594765126928, 37.20534590277671 -7.083708504641896 M36.718612861527504 -8.094420079214617 C36.84601416392676 -7.829868548831376, 36.97341546632602 -7.565317018448136, 37.20534590277671 -7.083708504641896 M37.20534590277671 -7.083708504641896 C37.3280180525166 -6.780705923079724, 37.450690202256474 -6.477703341517552, 37.62632238587081 -6.043888452372892 M37.20534590277671 -7.083708504641896 C37.316885316454176 -6.808203996390714, 37.42842473013163 -6.5326994881395315, 37.62632238587081 -6.043888452372892 M37.62632238587081 -6.043888452372892 C37.730291645039884 -5.730749609007476, 37.83426090420896 -5.417610765642059, 37.97981242814156 -4.979232766043073 M37.62632238587081 -6.043888452372892 C37.72421391127771 -5.749054774743783, 37.8221054366846 -5.454221097114674, 37.97981242814156 -4.979232766043073 M37.97981242814156 -4.979232766043073 C38.04441277943039 -4.732883628609409, 38.10901313071922 -4.486534491175745, 38.26436346318191 -3.894116344235504 M37.97981242814156 -4.979232766043073 C38.0666298954165 -4.648160136395387, 38.15344736269144 -4.317087506747702, 38.26436346318191 -3.894116344235504 M38.26436346318191 -3.894116344235504 C38.3348351828195 -3.532258958099676, 38.4053069024571 -3.1704015719638483, 38.478806209752875 -2.792998163084143 M38.26436346318191 -3.894116344235504 C38.34533616599965 -3.4783386288532174, 38.42630886881739 -3.062560913470931, 38.478806209752875 -2.792998163084143 M38.478806209752875 -2.792998163084143 C38.51853807124141 -2.4848456913225836, 38.558269932729935 -2.1766932195610242, 38.62225947661097 -1.680402953384434 M38.478806209752875 -2.792998163084143 C38.511766918307586 -2.5373614163619034, 38.5447276268623 -2.281724669639664, 38.62225947661097 -1.680402953384434 M38.62225947661097 -1.680402953384434 C38.640720050511796 -1.392864613772071, 38.65918062441261 -1.105326274159708, 38.69413378351204 -0.5609026075039654 M38.62225947661097 -1.680402953384434 C38.64587576949932 -1.3125601289198365, 38.669492062387675 -0.9447173044552393, 38.69413378351204 -0.5609026075039654 M38.69413378351204 -0.5609026075039654 C38.69413378351204 -0.1486203546093418, 38.69413378351204 0.26366189828528175, 38.69413378351204 0.5609026075039611 M38.69413378351204 -0.5609026075039654 C38.69413378351204 -0.23170966327003906, 38.69413378351204 0.09748328096388725, 38.69413378351204 0.5609026075039611 M38.69413378351204 0.5609026075039611 C38.67792826196133 0.8133166865177806, 38.661722740410625 1.0657307655315997, 38.62225947661097 1.680402953384422 M38.69413378351204 0.5609026075039611 C38.674039908409 0.8738809317177654, 38.65394603330597 1.1868592559315696, 38.62225947661097 1.680402953384422 M38.62225947661097 1.680402953384422 C38.569085544742066 2.092809468579118, 38.51591161287316 2.505215983773814, 38.478806209752875 2.792998163084131 M38.62225947661097 1.680402953384422 C38.581888071766784 1.993515597120309, 38.541516666922604 2.3066282408561958, 38.478806209752875 2.792998163084131 M38.478806209752875 2.792998163084131 C38.41364522134643 3.127586066771465, 38.34848423293998 3.4621739704587986, 38.26436346318191 3.8941163442355 M38.478806209752875 2.792998163084131 C38.41184047228123 3.1368530717874057, 38.34487473480958 3.4807079804906804, 38.26436346318191 3.8941163442355 M38.26436346318191 3.8941163442355 C38.18822097851342 4.184480638638047, 38.11207849384493 4.474844933040594, 37.97981242814156 4.979232766043061 M38.26436346318191 3.8941163442355 C38.16204954473529 4.284283658405206, 38.05973562628867 4.674450972574913, 37.97981242814156 4.979232766043061 M37.97981242814156 4.979232766043061 C37.85604135041028 5.352011531926503, 37.732270272679 5.724790297809944, 37.62632238587081 6.04388845237288 M37.97981242814156 4.979232766043061 C37.89264151332828 5.241777672661522, 37.805470598515 5.504322579279982, 37.62632238587081 6.04388845237288 M37.62632238587081 6.04388845237288 C37.53594434666439 6.267123956553254, 37.44556630745797 6.490359460733628, 37.20534590277672 7.0837085046418915 M37.62632238587081 6.04388845237288 C37.504003796596905 6.346017732748463, 37.381685207323 6.648147013124045, 37.20534590277672 7.0837085046418915 M37.20534590277672 7.0837085046418915 C37.08596245325368 7.331610791973102, 36.96657900373064 7.579513079304312, 36.718612861527504 8.094420079214613 M37.20534590277672 7.0837085046418915 C37.0269440351041 7.454163800052553, 36.84854216743148 7.824619095463215, 36.718612861527504 8.094420079214613 M36.718612861527504 8.094420079214613 C36.54754814368593 8.398162807923361, 36.376483425844356 8.70190553663211, 36.16812335259356 9.071869945434186 M36.718612861527504 8.094420079214613 C36.55201290117674 8.390235178892707, 36.38541294082598 8.6860502785708, 36.16812335259356 9.071869945434186 M36.16812335259356 9.071869945434186 C36.01117499343184 9.312984771642101, 35.85422663427011 9.554099597850017, 35.55613945544673 10.012041552137964 M36.16812335259356 9.071869945434186 C36.019686716276006 9.299908479635842, 35.87125007995845 9.527947013837498, 35.55613945544673 10.012041552137964 M35.55613945544673 10.012041552137964 C35.37979189634778 10.248331215737425, 35.203444337248825 10.484620879336887, 34.885175943190525 10.911071532527835 M35.55613945544673 10.012041552137964 C35.29034178486027 10.368186216057891, 35.02454411427381 10.72433087997782, 34.885175943190525 10.911071532527835 M34.885175943190525 10.911071532527835 C34.73319672410663 11.089594971126331, 34.58121750502273 11.268118409724828, 34.15798994881803 11.765265579573038 M34.885175943190525 10.911071532527835 C34.610007671753365 11.23429984167612, 34.33483940031621 11.557528150824407, 34.15798994881803 11.765265579573038 M34.15798994881803 11.765265579573038 C33.917282326639054 12.013815961936144, 33.67657470446007 12.26236634429925, 33.37756963556102 12.571113626710229 M34.15798994881803 11.765265579573038 C34.00150033010174 11.926853958934238, 33.84501071138546 12.088442338295437, 33.37756963556102 12.571113626710229 M33.37756963556102 12.571113626710229 C33.146506093001676 12.780959422456299, 32.91544255044234 12.990805218202366, 32.54712191788631 13.325304271459842 M33.37756963556102 12.571113626710229 C33.14287886133943 12.78425357828066, 32.90818808711785 12.99739352985109, 32.54712191788631 13.325304271459842 M32.54712191788631 13.325304271459842 C32.19969720257136 13.60236623656356, 31.852272487256414 13.879428201667276, 31.670059283596284 14.02473838268924 M32.54712191788631 13.325304271459842 C32.34514090653201 13.486378753074451, 32.14315989517771 13.64745323468906, 31.670059283596284 14.02473838268924 M31.670059283596284 14.02473838268924 C31.465531256939972 14.16740828020911, 31.261003230283656 14.31007817772898, 30.749985771184612 14.666541835607207 M31.670059283596284 14.02473838268924 C31.304314518343457 14.279866098093907, 30.938569753090626 14.534993813498573, 30.749985771184612 14.666541835607207 M30.749985771184612 14.666541835607207 C30.37780206153731 14.892161787589654, 30.00561835189001 15.117781739572099, 29.79068216006891 15.248077322159315 M30.749985771184612 14.666541835607207 C30.473672236977166 14.834044723842327, 30.19735870276972 15.001547612077447, 29.79068216006891 15.248077322159315 M29.79068216006891 15.248077322159315 C29.566256722659034 15.365159929104694, 29.341831285249157 15.482242536050075, 28.79609043455727 15.766955188292332 M29.79068216006891 15.248077322159315 C29.558028471179373 15.369452602631187, 29.32537478228983 15.49082788310306, 28.79609043455727 15.766955188292332 M28.79609043455727 15.766955188292332 C28.50085012963834 15.89764931328747, 28.20560982471941 16.028343438282608, 27.770297585389052 16.22104325355538 M28.79609043455727 15.766955188292332 C28.459846657472895 15.915800334090328, 28.123602880388514 16.064645479888323, 27.770297585389052 16.22104325355538 M27.770297585389052 16.22104325355538 C27.412022631023003 16.35289174861946, 27.053747676656954 16.484740243683536, 26.717518815413374 16.608475572686697 M27.770297585389052 16.22104325355538 C27.47470487980587 16.329824101639005, 27.17911217422269 16.438604949722635, 26.717518815413374 16.608475572686697 M26.717518815413374 16.608475572686697 C26.4081034682386 16.70030842357387, 26.09868812106383 16.79214127446104, 25.642080218416396 16.927660103183012 M26.717518815413374 16.608475572686697 C26.393456538186676 16.70465555552998, 26.069394260959978 16.800835538373256, 25.642080218416396 16.927660103183012 M25.642080218416396 16.927660103183012 C25.22454224447709 17.022960421044743, 24.80700427053778 17.118260738906475, 24.54840100227402 17.177285247343644 M25.642080218416396 16.927660103183012 C25.2150539768045 17.025126056224277, 24.78802773519261 17.122592009265546, 24.54840100227402 17.177285247343644 M24.54840100227402 17.177285247343644 C24.176724738975885 17.237374983201214, 23.805048475677747 17.297464719058787, 23.440975329478864 17.356325241906806 M24.54840100227402 17.177285247343644 C24.24131748434765 17.22693212905373, 23.934233966421278 17.276579010763818, 23.440975329478864 17.356325241906806 M23.440975329478864 17.356325241906806 C23.078020075787233 17.39133909871288, 22.715064822095606 17.426352955518954, 22.324353849662476 17.464044373130886 M23.440975329478864 17.356325241906806 C23.099545586118836 17.389262558619404, 22.75811584275881 17.422199875332, 22.324353849662476 17.464044373130886 M22.324353849662476 17.464044373130886 C22.034299597824862 17.473345848430966, 21.74424534598725 17.482647323731047, 21.203125000000004 17.5 M22.324353849662476 17.464044373130886 C22.012991980787632 17.47402914223659, 21.701630111912788 17.484013911342295, 21.203125000000004 17.5 M21.203125000000004 17.5 C21.203125000000004 17.5, 21.203125 17.5, 21.203125 17.5 M21.203125000000004 17.5 C21.203125000000004 17.5, 21.203125 17.5, 21.203125 17.5 M21.203125 17.5 C8.92756233651707 17.5, -3.3480003269658596 17.5, -21.203124999999996 17.5 M21.203125 17.5 C8.129515334455407 17.5, -4.944094331089186 17.5, -21.203124999999996 17.5 M-21.203124999999996 17.5 C-21.582434228942816 17.48783629130843, -21.961743457885635 17.47567258261686, -22.32435384966247 17.464044373130886 M-21.203124999999996 17.5 C-21.578918765167632 17.487949025389263, -21.95471253033527 17.47589805077853, -22.32435384966247 17.464044373130886 M-22.32435384966247 17.464044373130886 C-22.628077633982503 17.434744504938823, -22.931801418302538 17.405444636746765, -23.44097532947886 17.356325241906806 M-22.32435384966247 17.464044373130886 C-22.69154084058548 17.42862228572351, -23.05872783150849 17.39320019831613, -23.44097532947886 17.356325241906806 M-23.44097532947886 17.356325241906806 C-23.679837770316155 17.317707814878126, -23.91870021115345 17.279090387849447, -24.548401002274012 17.177285247343644 M-23.44097532947886 17.356325241906806 C-23.828859688000104 17.29361510690922, -24.216744046521352 17.230904971911627, -24.548401002274012 17.177285247343644 M-24.548401002274012 17.177285247343644 C-24.84900826963722 17.108673600213738, -25.14961553700043 17.04006195308383, -25.642080218416375 16.927660103183015 M-24.548401002274012 17.177285247343644 C-24.77660077090017 17.12520013929738, -25.004800539526325 17.07311503125112, -25.642080218416375 16.927660103183015 M-25.642080218416375 16.927660103183015 C-26.031650276694794 16.812037754780945, -26.421220334973217 16.696415406378875, -26.717518815413353 16.608475572686704 M-25.642080218416375 16.927660103183015 C-25.90560046293175 16.84944867785684, -26.169120707447128 16.771237252530668, -26.717518815413353 16.608475572686704 M-26.717518815413353 16.608475572686704 C-26.983116488353453 16.510733173886774, -27.24871416129355 16.412990775086843, -27.77029758538905 16.22104325355538 M-26.717518815413353 16.608475572686704 C-27.130712289797845 16.456416554594604, -27.54390576418234 16.3043575365025, -27.77029758538905 16.22104325355538 M-27.77029758538905 16.22104325355538 C-28.13942392551741 16.05764197252439, -28.50855026564577 15.8942406914934, -28.796090434557264 15.766955188292338 M-27.77029758538905 16.22104325355538 C-28.095170242979762 16.077231765044957, -28.42004290057048 15.93342027653453, -28.796090434557264 15.766955188292338 M-28.796090434557264 15.766955188292338 C-29.189299670320032 15.561818181857436, -29.5825089060828 15.356681175422537, -29.790682160068904 15.248077322159318 M-28.796090434557264 15.766955188292338 C-29.191355237879385 15.560745793578377, -29.586620041201503 15.354536398864417, -29.790682160068904 15.248077322159318 M-29.790682160068904 15.248077322159318 C-30.09486520026684 15.063679775613366, -30.399048240464776 14.879282229067416, -30.74998577118459 14.666541835607218 M-29.790682160068904 15.248077322159318 C-30.155949777963112 15.026649945641063, -30.52121739585732 14.805222569122806, -30.74998577118459 14.666541835607218 M-30.74998577118459 14.666541835607218 C-31.047543940551176 14.458978137742633, -31.34510210991776 14.251414439878051, -31.670059283596277 14.024738382689243 M-30.74998577118459 14.666541835607218 C-31.05943174716586 14.450685718463085, -31.36887772314713 14.234829601318951, -31.670059283596277 14.024738382689243 M-31.670059283596277 14.024738382689243 C-31.957863239994577 13.795222386246527, -32.24566719639288 13.565706389803811, -32.547121917886294 13.325304271459856 M-31.670059283596277 14.024738382689243 C-31.942872372445 13.807177204193575, -32.215685461293724 13.589616025697909, -32.547121917886294 13.325304271459856 M-32.547121917886294 13.325304271459856 C-32.863275533682426 13.038181922560097, -33.17942914947856 12.751059573660338, -33.377569635561 12.571113626710241 M-32.547121917886294 13.325304271459856 C-32.78026501994954 13.113569874794466, -33.013408122012784 12.901835478129076, -33.377569635561 12.571113626710241 M-33.377569635561 12.571113626710241 C-33.58047485356374 12.3615973302942, -33.78338007156649 12.15208103387816, -34.15798994881803 11.765265579573043 M-33.377569635561 12.571113626710241 C-33.6398955564715 12.300240576011506, -33.902221477382 12.02936752531277, -34.15798994881803 11.765265579573043 M-34.15798994881803 11.765265579573043 C-34.34431151763348 11.546401662844808, -34.53063308644892 11.327537746116574, -34.88517594319052 10.91107153252784 M-34.15798994881803 11.765265579573043 C-34.304852141236 11.592752891663409, -34.45171433365397 11.420240203753776, -34.88517594319052 10.91107153252784 M-34.88517594319052 10.91107153252784 C-35.09441403583808 10.63071155036249, -35.303652128485645 10.350351568197139, -35.556139455446726 10.012041552137974 M-34.88517594319052 10.91107153252784 C-35.0756229867712 10.655889844212323, -35.266070030351884 10.400708155896806, -35.556139455446726 10.012041552137974 M-35.556139455446726 10.012041552137974 C-35.7994529411208 9.638246699323396, -36.04276642679488 9.264451846508818, -36.168123352593554 9.071869945434198 M-35.556139455446726 10.012041552137974 C-35.70417632676349 9.784617164329468, -35.85221319808025 9.557192776520964, -36.168123352593554 9.071869945434198 M-36.168123352593554 9.071869945434198 C-36.323182724406166 8.796546329316897, -36.478242096218786 8.521222713199593, -36.718612861527504 8.094420079214618 M-36.168123352593554 9.071869945434198 C-36.33803757677479 8.770170034719502, -36.50795180095602 8.468470124004806, -36.718612861527504 8.094420079214618 M-36.718612861527504 8.094420079214618 C-36.8609888830169 7.798773224233035, -37.0033649045063 7.5031263692514525, -37.20534590277671 7.083708504641898 M-36.718612861527504 8.094420079214618 C-36.84038694767635 7.841553583778487, -36.962161033825204 7.588687088342357, -37.20534590277671 7.083708504641898 M-37.20534590277671 7.083708504641898 C-37.29388357930828 6.8650187318494, -37.38242125583985 6.646328959056902, -37.62632238587081 6.043888452372894 M-37.20534590277671 7.083708504641898 C-37.352658283794156 6.7198440754376785, -37.499970664811606 6.355979646233459, -37.62632238587081 6.043888452372894 M-37.62632238587081 6.043888452372894 C-37.70372125412501 5.810775393026197, -37.78112012237921 5.5776623336795, -37.97981242814156 4.979232766043068 M-37.62632238587081 6.043888452372894 C-37.728305379025734 5.736731925773579, -37.83028837218066 5.429575399174266, -37.97981242814156 4.979232766043068 M-37.97981242814156 4.979232766043068 C-38.0602619063358 4.672444038663993, -38.14071138453005 4.365655311284919, -38.26436346318191 3.8941163442355062 M-37.97981242814156 4.979232766043068 C-38.04980446087703 4.712322810483846, -38.1197964936125 4.445412854924624, -38.26436346318191 3.8941163442355062 M-38.26436346318191 3.8941163442355062 C-38.31115998560579 3.653826092037393, -38.35795650802967 3.4135358398392794, -38.478806209752875 2.7929981630841447 M-38.26436346318191 3.8941163442355062 C-38.339774842575615 3.506894849249495, -38.41518622196933 3.119673354263484, -38.478806209752875 2.7929981630841447 M-38.478806209752875 2.7929981630841447 C-38.52921540602019 2.4020343912565356, -38.57962460228751 2.011070619428926, -38.622259476610964 1.680402953384444 M-38.478806209752875 2.7929981630841447 C-38.53078884645251 2.3898310979744357, -38.58277148315215 1.9866640328647267, -38.622259476610964 1.680402953384444 M-38.622259476610964 1.680402953384444 C-38.64841802978687 1.2729623728657198, -38.674576582962764 0.8655217923469954, -38.69413378351204 0.5609026075039676 M-38.622259476610964 1.680402953384444 C-38.650213610550686 1.2449947531025414, -38.6781677444904 0.809586552820639, -38.69413378351204 0.5609026075039676 M-38.69413378351204 0.5609026075039676 C-38.69413378351204 0.20236101764550785, -38.69413378351204 -0.1561805722129519, -38.69413378351204 -0.560902607503959 M-38.69413378351204 0.5609026075039676 C-38.69413378351204 0.2055355302827505, -38.69413378351204 -0.14983154693846656, -38.69413378351204 -0.560902607503959 M-38.69413378351204 -0.560902607503959 C-38.672806243097554 -0.8930962647403577, -38.651478702683065 -1.2252899219767563, -38.62225947661097 -1.6804029533844198 M-38.69413378351204 -0.560902607503959 C-38.6725856408194 -0.8965323232894848, -38.65103749812677 -1.2321620390750105, -38.62225947661097 -1.6804029533844198 M-38.62225947661097 -1.6804029533844198 C-38.58670118411956 -1.9561860481686875, -38.55114289162816 -2.231969142952955, -38.478806209752875 -2.7929981630841367 M-38.62225947661097 -1.6804029533844198 C-38.568933846855195 -2.0939860074335312, -38.51560821709943 -2.507569061482643, -38.478806209752875 -2.7929981630841367 M-38.478806209752875 -2.7929981630841367 C-38.40204507519883 -3.1871503655476143, -38.32528394064479 -3.5813025680110924, -38.26436346318191 -3.894116344235498 M-38.478806209752875 -2.7929981630841367 C-38.422206902475644 -3.083623643684879, -38.36560759519841 -3.3742491242856216, -38.26436346318191 -3.894116344235498 M-38.26436346318191 -3.894116344235498 C-38.2014265091329 -4.134122227072802, -38.13848955508389 -4.374128109910107, -37.979812428141564 -4.979232766043059 M-38.26436346318191 -3.894116344235498 C-38.15973410234944 -4.293113443741536, -38.05510474151698 -4.6921105432475745, -37.979812428141564 -4.979232766043059 M-37.979812428141564 -4.979232766043059 C-37.88501669597547 -5.264742407678511, -37.79022096380938 -5.550252049313964, -37.62632238587081 -6.0438884523728715 M-37.979812428141564 -4.979232766043059 C-37.87274026274485 -5.3017170685851545, -37.76566809734813 -5.62420137112725, -37.62632238587081 -6.0438884523728715 M-37.62632238587081 -6.0438884523728715 C-37.49069189210241 -6.3788983942180195, -37.355061398334016 -6.713908336063167, -37.20534590277672 -7.083708504641889 M-37.62632238587081 -6.0438884523728715 C-37.480284020873455 -6.404606037376053, -37.334245655876096 -6.765323622379234, -37.20534590277672 -7.083708504641889 M-37.20534590277672 -7.083708504641889 C-37.03784925836096 -7.431518870625285, -36.8703526139452 -7.779329236608682, -36.718612861527504 -8.094420079214611 M-37.20534590277672 -7.083708504641889 C-37.05679966910123 -7.39216793724927, -36.90825343542575 -7.700627369856652, -36.718612861527504 -8.094420079214611 M-36.718612861527504 -8.094420079214611 C-36.56770135636674 -8.36237873807451, -36.416789851205976 -8.63033739693441, -36.168123352593554 -9.071869945434193 M-36.718612861527504 -8.094420079214611 C-36.55401923194024 -8.386672735459095, -36.38942560235297 -8.67892539170358, -36.168123352593554 -9.071869945434193 M-36.168123352593554 -9.071869945434193 C-35.97894541017237 -9.362498066383534, -35.78976746775119 -9.653126187332877, -35.556139455446726 -10.012041552137969 M-36.168123352593554 -9.071869945434193 C-36.04346985690432 -9.263371188963267, -35.91881636121509 -9.454872432492342, -35.556139455446726 -10.012041552137969 M-35.556139455446726 -10.012041552137969 C-35.29166172646328 -10.366417614559001, -35.027183997479845 -10.720793676980035, -34.885175943190525 -10.911071532527835 M-35.556139455446726 -10.012041552137969 C-35.34032619725159 -10.301211657127164, -35.12451293905646 -10.59038176211636, -34.885175943190525 -10.911071532527835 M-34.885175943190525 -10.911071532527835 C-34.698083877339194 -11.130840518916939, -34.51099181148786 -11.350609505306043, -34.15798994881803 -11.765265579573038 M-34.885175943190525 -10.911071532527835 C-34.710305001360005 -11.116484891240434, -34.535434059529486 -11.321898249953035, -34.15798994881803 -11.765265579573038 M-34.15798994881803 -11.765265579573038 C-33.91125347629889 -12.020041244890178, -33.66451700377976 -12.274816910207317, -33.377569635561024 -12.571113626710224 M-34.15798994881803 -11.765265579573038 C-33.99477687000719 -11.933796483488202, -33.83156379119636 -12.102327387403365, -33.377569635561024 -12.571113626710224 M-33.377569635561024 -12.571113626710224 C-33.203626765934324 -12.729083938629058, -33.02968389630763 -12.887054250547893, -32.547121917886315 -13.32530427145984 M-33.377569635561024 -12.571113626710224 C-33.13253642484675 -12.793646305457447, -32.887503214132465 -13.016178984204668, -32.547121917886315 -13.32530427145984 M-32.547121917886315 -13.32530427145984 C-32.2714322093453 -13.545159477610046, -31.995742500804287 -13.765014683760251, -31.670059283596288 -14.024738382689236 M-32.547121917886315 -13.32530427145984 C-32.33472539193767 -13.49468484879496, -32.12232886598901 -13.664065426130081, -31.670059283596288 -14.024738382689236 M-31.670059283596288 -14.024738382689236 C-31.323308204047105 -14.266616925170442, -30.97655712449792 -14.508495467651647, -30.749985771184612 -14.666541835607205 M-31.670059283596288 -14.024738382689236 C-31.41025004740736 -14.205970058894067, -31.15044081121843 -14.387201735098898, -30.749985771184612 -14.666541835607205 M-30.749985771184612 -14.666541835607205 C-30.418777179804824 -14.867322430099362, -30.08756858842504 -15.068103024591517, -29.79068216006891 -15.248077322159313 M-30.749985771184612 -14.666541835607205 C-30.51705081301991 -14.807748376124405, -30.28411585485521 -14.948954916641604, -29.79068216006891 -15.248077322159313 M-29.79068216006891 -15.248077322159313 C-29.45465294465985 -15.423383548601237, -29.118623729250785 -15.59868977504316, -28.79609043455727 -15.766955188292332 M-29.79068216006891 -15.248077322159313 C-29.42768714729789 -15.437451587812554, -29.064692134526865 -15.626825853465794, -28.79609043455727 -15.766955188292332 M-28.79609043455727 -15.766955188292332 C-28.560612064682008 -15.871194477418454, -28.325133694806745 -15.975433766544576, -27.770297585389056 -16.221043253555376 M-28.79609043455727 -15.766955188292332 C-28.449337758312982 -15.920452312013001, -28.102585082068693 -16.07394943573367, -27.770297585389056 -16.221043253555376 M-27.770297585389056 -16.221043253555376 C-27.398200515455642 -16.35797841491848, -27.02610344552223 -16.494913576281586, -26.717518815413374 -16.608475572686697 M-27.770297585389056 -16.221043253555376 C-27.45753296066362 -16.336143526618834, -27.14476833593819 -16.451243799682292, -26.717518815413374 -16.608475572686697 M-26.717518815413374 -16.608475572686697 C-26.368115058124253 -16.71217677379236, -26.01871130083513 -16.815877974898022, -25.642080218416396 -16.92766010318301 M-26.717518815413374 -16.608475572686697 C-26.340562060633264 -16.72035435881905, -25.963605305853154 -16.832233144951402, -25.642080218416396 -16.92766010318301 M-25.642080218416396 -16.92766010318301 C-25.328144301967722 -16.99931392748911, -25.01420838551905 -17.070967751795212, -24.548401002274023 -17.17728524734364 M-25.642080218416396 -16.92766010318301 C-25.336800013781108 -16.997338317751503, -25.03151980914582 -17.067016532319997, -24.548401002274023 -17.17728524734364 M-24.548401002274023 -17.17728524734364 C-24.16891596895868 -17.23863744457968, -23.789430935643335 -17.299989641815717, -23.440975329478867 -17.356325241906806 M-24.548401002274023 -17.17728524734364 C-24.20499088815767 -17.232805131408764, -23.861580774041318 -17.288325015473887, -23.440975329478867 -17.356325241906806 M-23.440975329478867 -17.356325241906806 C-23.18327318604796 -17.381185457751414, -22.92557104261705 -17.406045673596022, -22.324353849662476 -17.464044373130886 M-23.440975329478867 -17.356325241906806 C-23.034250412441565 -17.395561505495117, -22.627525495404267 -17.434797769083424, -22.324353849662476 -17.464044373130886 M-22.324353849662476 -17.464044373130886 C-22.075459542509556 -17.4720259291179, -21.826565235356632 -17.480007485104917, -21.203125000000007 -17.5 M-22.324353849662476 -17.464044373130886 C-21.949014771836207 -17.47608076680358, -21.573675694009935 -17.48811716047627, -21.203125000000007 -17.5 M-21.203125000000007 -17.5 C-21.203125000000004 -17.5, -21.203125000000004 -17.5, -21.203125 -17.5 M-21.203125000000007 -17.5 C-21.203125000000004 -17.5, -21.203125000000004 -17.5, -21.203125 -17.5" stroke="#999" stroke-width="1.3" fill="none" stroke-dasharray="0 0" style=""/></g><g class="label" style="" transform="translate(-27.328125, -10.5)"><rect/><foreignObject width="54.65625" height="21"><div xmlns="http://www.w3.org/1999/xhtml" style="display: table-cell; white-space: nowrap; line-height: 1.5; max-width: 200px; text-align: center;"><span class="nodeLabel"><p>확장 설치</p></span></div></foreignObject></g></g><g class="node default" id="flowA1-flowchart-B-1" data-look="classic" transform="translate(262.7890625, 122)"><rect class="basic label-container" style="" x="-75.90625" y="-35" width="151.8125" height="70"/><g class="label" style="" transform="translate(-47.90625, -21)"><rect/><foreignObject width="95.8125" height="42"><div xmlns="http://www.w3.org/1999/xhtml" style="display: table-cell; white-space: nowrap; line-height: 1.5; max-width: 200px; text-align: center;"><span class="nodeLabel"><p>새 탭 열림 · S01<br />사서 인사</p></span></div></foreignObject></g></g><g class="node default" id="flowA1-flowchart-C-3" data-look="classic" transform="translate(144.4296875, 294.71875)"><polygon points="72.71875,0 145.4375,-72.71875 72.71875,-145.4375 0,-72.71875" class="label-container" transform="translate(-72.21875, 72.71875)"/><g class="label" style="" transform="translate(-48.21875, -10.5)"><rect/><foreignObject width="96.4375" height="21"><div xmlns="http://www.w3.org/1999/xhtml" style="display: table-cell; white-space: nowrap; line-height: 1.5; max-width: 200px; text-align: center;"><span class="nodeLabel"><p>구글 로그인 승인</p></span></div></foreignObject></g></g><g class="node default" id="flowA1-flowchart-C1-5" data-look="classic" transform="translate(119.5546875, 540.4921875)"><rect class="basic label-container" style="" x="-111.5546875" y="-35" width="223.109375" height="70"/><g class="label" style="" transform="translate(-83.5546875, -21)"><rect/><foreignObject width="167.109375" height="42"><div xmlns="http://www.w3.org/1999/xhtml" style="display: table-cell; white-space: nowrap; line-height: 1.5; max-width: 200px; text-align: center;"><span class="nodeLabel"><p>다시 시도 안내<br />서버 저장이라 건너뛸 수 없음</p></span></div></foreignObject></g></g><g class="node default" id="flowA1-flowchart-D-8" data-look="classic" transform="translate(375.1640625, 540.4921875)"><polygon points="108.0546875,0 216.109375,-108.0546875 108.0546875,-216.109375 0,-108.0546875" class="label-container" transform="translate(-107.5546875, 108.0546875)"/><g class="label" style="" transform="translate(-83.5546875, -10.5)"><rect/><foreignObject width="167.109375" height="21"><div xmlns="http://www.w3.org/1999/xhtml" style="display: table-cell; white-space: nowrap; line-height: 1.5; max-width: 200px; text-align: center;"><span class="nodeLabel"><p>서버에 이 계정의 서재가 있나</p></span></div></foreignObject></g></g><g class="node default" id="flowA1-flowchart-R-10" data-look="classic" transform="translate(256.80078125, 759.046875)"><rect class="basic label-container" style="" x="-84.359375" y="-24.5" width="168.71875" height="49"/><g class="label" style="" transform="translate(-56.359375, -10.5)"><rect/><foreignObject width="112.71875" height="21"><div xmlns="http://www.w3.org/1999/xhtml" style="display: table-cell; white-space: nowrap; line-height: 1.5; max-width: 200px; text-align: center;"><span class="nodeLabel"><p>A5 재설치 흐름으로</p></span></div></foreignObject></g></g><g class="node default" id="flowA1-flowchart-E-12" data-look="classic" transform="translate(493.58984375, 759.046875)"><rect class="basic label-container" style="" x="-116.4296875" y="-45.5" width="232.859375" height="91"/><g class="label" style="" transform="translate(-88.4296875, -31.5)"><rect/><foreignObject width="176.859375" height="63"><div xmlns="http://www.w3.org/1999/xhtml" style="display: table-cell; white-space: nowrap; line-height: 1.5; max-width: 200px; text-align: center;"><span class="nodeLabel"><p>수집 범위 안내<br />모으는 것 / 모으지 않는 것<br />로그인 페이지는 물어보고 담음</p></span></div></foreignObject></g></g><g class="node default" id="flowA1-flowchart-P-14" data-look="classic" transform="translate(493.58984375, 979.984375)"><polygon points="131.4375,0 262.875,-131.4375 131.4375,-262.875 0,-131.4375" class="label-container" transform="translate(-130.9375, 131.4375)"/><g class="label" style="" transform="translate(-96.4375, -21)"><rect/><foreignObject width="192.875" height="42"><div xmlns="http://www.w3.org/1999/xhtml" style="display: table-cell; white-space: nowrap; line-height: 1.5; max-width: 200px; text-align: center;"><span class="nodeLabel"><p>사이트 읽기 권한 요청<br />북마크한 페이지 본문을 뜨기 위해</p></span></div></foreignObject></g></g><g class="node default" id="flowA1-flowchart-E1-16" data-look="classic" transform="translate(493.58984375, 1356.921875)"><rect class="basic label-container" style="" x="-112.0234375" y="-45.5" width="224.046875" height="91"/><g class="label" style="" transform="translate(-84.0234375, -31.5)"><rect/><foreignObject width="168.046875" height="63"><div xmlns="http://www.w3.org/1999/xhtml" style="display: table-cell; white-space: nowrap; line-height: 1.5; max-width: 200px; text-align: center;"><span class="nodeLabel"><p>담지 않는 사이트 기본값 확인<br />메일 · 은행·결제 · 문서 도구<br />추가·삭제 가능</p></span></div></foreignObject></g></g><g class="node default" id="flowA1-flowchart-P1-18" data-look="classic" transform="translate(570.203125, 1221.921875)"><rect class="basic label-container" style="" x="-112.34375" y="-45.5" width="224.6875" height="91"/><g class="label" style="" transform="translate(-84.34375, -31.5)"><rect/><foreignObject width="168.6875" height="63"><div xmlns="http://www.w3.org/1999/xhtml" style="display: table-cell; white-space: nowrap; line-height: 1.5; max-width: 200px; text-align: center;"><span class="nodeLabel"><p>서버가 대신 읽어요 안내<br />로그인 페이지는 제목·링크만<br />설정에서 켤 수 있음</p></span></div></foreignObject></g></g><g class="node default" id="flowA1-flowchart-F-22" data-look="classic" transform="translate(493.58984375, 1498.25)"><polygon points="51.828125,0 103.65625,-51.828125 51.828125,-103.65625 0,-51.828125" class="label-container" transform="translate(-51.328125, 51.828125)"/><g class="label" style="" transform="translate(-27.328125, -10.5)"><rect/><foreignObject width="54.65625" height="21"><div xmlns="http://www.w3.org/1999/xhtml" style="display: table-cell; white-space: nowrap; line-height: 1.5; max-width: 200px; text-align: center;"><span class="nodeLabel"><p>이름 입력</p></span></div></foreignObject></g></g><g class="node default" id="flowA1-flowchart-F1-24" data-look="classic" transform="translate(391.703125, 1639.578125)"><rect class="basic label-container" style="" x="-95.5390625" y="-24.5" width="191.078125" height="49"/><g class="label" style="" transform="translate(-67.5390625, -10.5)"><rect/><foreignObject width="135.078125" height="21"><div xmlns="http://www.w3.org/1999/xhtml" style="display: table-cell; white-space: nowrap; line-height: 1.5; max-width: 200px; text-align: center;"><span class="nodeLabel"><p>이름을 알려주세요 안내</p></span></div></foreignObject></g></g><g class="node default" id="flowA1-flowchart-G-27" data-look="classic" transform="translate(628.359375, 1639.578125)"><rect class="basic label-container" style="" x="-105.1171875" y="-24.5" width="210.234375" height="49"/><g class="label" style="" transform="translate(-77.1171875, -10.5)"><rect/><foreignObject width="154.234375" height="21"><div xmlns="http://www.w3.org/1999/xhtml" style="display: table-cell; white-space: nowrap; line-height: 1.5; max-width: 200px; text-align: center;"><span class="nodeLabel"><p>사서가 이름을 한 번 불러줌</p></span></div></foreignObject></g></g><g class="node default" id="flowA1-flowchart-J-29" data-look="classic" transform="translate(628.359375, 1743.078125)"><rect class="basic label-container" style="" x="-90.6640625" y="-35" width="181.328125" height="70"/><g class="label" style="" transform="translate(-62.6640625, -21)"><rect/><foreignObject width="125.328125" height="42"><div xmlns="http://www.w3.org/1999/xhtml" style="display: table-cell; white-space: nowrap; line-height: 1.5; max-width: 200px; text-align: center;"><span class="nodeLabel"><p>자동 담기 폴더 선택<br />기본은 모든 새 북마크</p></span></div></foreignObject></g></g><g class="node default" id="flowA1-flowchart-K-31" data-look="classic" transform="translate(628.359375, 1857.078125)"><rect class="basic label-container" style="" x="-117.9921875" y="-35" width="235.984375" height="70"/><g class="label" style="" transform="translate(-89.9921875, -21)"><rect/><foreignObject width="179.984375" height="42"><div xmlns="http://www.w3.org/1999/xhtml" style="display: table-cell; white-space: nowrap; line-height: 1.5; max-width: 200px; text-align: center;"><span class="nodeLabel"><p>기존 북마크는 목록만 읽어 보관<br />수집하지 않음</p></span></div></foreignObject></g></g><g class="node default" id="flowA1-flowchart-L-33" data-look="classic" transform="translate(628.359375, 2047.1953125)"><polygon points="111.1171875,0 222.234375,-111.1171875 111.1171875,-222.234375 0,-111.1171875" class="label-container" transform="translate(-110.6171875, 111.1171875)"/><g class="label" style="" transform="translate(-76.1171875, -21)"><rect/><foreignObject width="152.234375" height="42"><div xmlns="http://www.w3.org/1999/xhtml" style="display: table-cell; white-space: nowrap; line-height: 1.5; max-width: 200px; text-align: center;"><span class="nodeLabel"><p>사서: 북마크가 N개 있네요<br />가져올까요</p></span></div></foreignObject></g></g><g class="node default" id="flowA1-flowchart-M-35" data-look="classic" transform="translate(521.4453125, 2275.140625)"><rect class="basic label-container" style="" x="-126" y="-35" width="252" height="70"/><g class="label" style="" transform="translate(-98, -21)"><rect/><foreignObject width="196" height="42"><div xmlns="http://www.w3.org/1999/xhtml" style="display: table-cell; white-space: nowrap; line-height: 1.5; max-width: 200px; text-align: center;"><span class="nodeLabel"><p>B2 기존 북마크 가져오기 · S14<br />칸은 들어온 책을 보고 사서가 제안</p></span></div></foreignObject></g></g><g class="node default" id="flowA1-flowchart-H-37" data-look="classic" transform="translate(735.2734375, 2275.140625)"><polygon points="51.828125,0 103.65625,-51.828125 51.828125,-103.65625 0,-51.828125" class="label-container" transform="translate(-51.328125, 51.828125)"/><g class="label" style="" transform="translate(-27.328125, -10.5)"><rect/><foreignObject width="54.65625" height="21"><div xmlns="http://www.w3.org/1999/xhtml" style="display: table-cell; white-space: nowrap; line-height: 1.5; max-width: 200px; text-align: center;"><span class="nodeLabel"><p>관심 주제</p></span></div></foreignObject></g></g><g class="node default" id="flowA1-flowchart-I-39" data-look="classic" transform="translate(600.6328125, 2426.96875)"><rect class="basic label-container" style="" x="-105.6953125" y="-35" width="211.390625" height="70"/><g class="label" style="" transform="translate(-77.6953125, -21)"><rect/><foreignObject width="155.390625" height="42"><div xmlns="http://www.w3.org/1999/xhtml" style="display: table-cell; white-space: nowrap; line-height: 1.5; max-width: 200px; text-align: center;"><span class="nodeLabel"><p>사서가 칸 초안 3~5개<br />칸 이름 + 들어오는 글 한 줄</p></span></div></foreignObject></g></g><g class="node default" id="flowA1-flowchart-I1-41" data-look="classic" transform="translate(600.6328125, 2540.96875)"><rect class="basic label-container" style="" x="-117.84375" y="-24.5" width="235.6875" height="49"/><g class="label" style="" transform="translate(-89.84375, -10.5)"><rect/><foreignObject width="179.6875" height="21"><div xmlns="http://www.w3.org/1999/xhtml" style="display: table-cell; white-space: nowrap; line-height: 1.5; max-width: 200px; text-align: center;"><span class="nodeLabel"><p>이름 바꾸기·빼기·추가 후 확정</p></span></div></foreignObject></g></g><g class="node default" id="flowA1-flowchart-N-42" data-look="classic" transform="translate(735.2734375, 2654.96875)"><rect class="basic label-container" style="" x="-73.0859375" y="-35" width="146.171875" height="70"/><g class="label" style="" transform="translate(-45.0859375, -21)"><rect/><foreignObject width="90.171875" height="42"><div xmlns="http://www.w3.org/1999/xhtml" style="display: table-cell; white-space: nowrap; line-height: 1.5; max-width: 200px; text-align: center;"><span class="nodeLabel"><p>S02 빈 서재<br />북마크해보세요</p></span></div></foreignObject></g></g><g class="node default" id="flowA1-flowchart-H1-44" data-look="classic" transform="translate(869.9140625, 2540.96875)"><rect class="basic label-container" style="" x="-115.4375" y="-35" width="230.875" height="70"/><g class="label" style="" transform="translate(-87.4375, -21)"><rect/><foreignObject width="174.875" height="42"><div xmlns="http://www.w3.org/1999/xhtml" style="display: table-cell; white-space: nowrap; line-height: 1.5; max-width: 200px; text-align: center;"><span class="nodeLabel"><p>칸 없이 시작<br />임시서가에 3권 모이면 칸 제안</p></span></div></foreignObject></g></g><g class="node default" id="flowA1-flowchart-Z-48" data-look="classic" transform="translate(381.1484375, 294.71875)"><rect class="basic label-container" style="" x="-128" y="-35" width="256" height="70"/><g class="label" style="" transform="translate(-100, -21)"><rect/><foreignObject width="200" height="42"><div xmlns="http://www.w3.org/1999/xhtml" style="display: table; white-space: break-spaces; line-height: 1.5; max-width: 200px; text-align: center; width: 200px;"><span class="nodeLabel"><p>다음 새 탭에서 멈춘 단계부터 이어서</p></span></div></foreignObject></g></g></g></g></g><defs><filter id="flowA1-drop-shadow" height="130%" width="130%"><feDropShadow dx="4" dy="4" stdDeviation="0" flood-opacity="0.06" flood-color="#000000"/></filter></defs><defs><filter id="flowA1-drop-shadow-small" height="150%" width="150%"><feDropShadow dx="2" dy="2" stdDeviation="0" flood-opacity="0.06" flood-color="#000000"/></filter></defs><linearGradient id="flowA1-gradient" gradientUnits="objectBoundingBox" x1="0%" y1="0%" x2="100%" y2="0%"><stop offset="0%" stop-color="hsl(0, 0%, 83.3333333333%)" stop-opacity="1"/><stop offset="100%" stop-color="hsl(0, 0%, 88.9215686275%)" stop-opacity="1"/></linearGradient></svg>